<?xml version="1.0" encoding="UTF-8"?>
<svg width="288px" height="346px" viewBox="0 0 288 346" version="1.1" xmlns="http://www.w3.org/2000/svg" xmlns:xlink="http://www.w3.org/1999/xlink">
    <!-- Generator: Sketch 40 (33762) - http://www.bohemiancoding.com/sketch -->
    <title>Group 4</title>
    <desc>Created with Sketch.</desc>
    <defs>
        <radialGradient cx="21.4769315%" cy="50%" fx="21.4769315%" fy="50%" r="100%" id="radialGradient-1">
            <stop stop-color="#27C9CF" offset="0%"></stop>
            <stop stop-color="#2BE0E6" offset="100%"></stop>
        </radialGradient>
        <circle id="path-2" cx="26.5" cy="26.5" r="26.5"></circle>
        <circle id="path-4" cx="19" cy="19" r="19"></circle>
        <circle id="path-6" cx="18.5" cy="18.5" r="18.5"></circle>
    </defs>
    <g id="Page-1" stroke="none" stroke-width="1" fill="none" fill-rule="evenodd">
        <g id="Group-4">
            <g id="worker-network-icon" transform="translate(41.000000, 0.000000)" fill="url(#radialGradient-1)">
                <path d="M21.7474268,194.021174 L3.99399544,203.672919 C2.22599805,204.600499 0.910478186,206.202798 0.347757563,208.114023 C-0.214963061,210.025249 0.0231521579,212.08225 1.00774359,213.815431 C2.37103143,216.200278 4.91617546,217.669046 7.66938234,217.65977 C8.95210758,217.683305 10.2188481,217.373206 11.3447692,216.760031 L29.0982006,207.108286 C30.8633094,206.156238 32.1725655,204.539167 32.7336552,202.618112 C33.2947448,200.697058 33.0609439,198.631993 32.0844524,196.88398 C30.0099807,193.263967 25.3973538,191.986515 21.7474268,194.021174 L21.7474268,194.021174 Z M200.208791,228.374843 L182.570215,218.477714 C178.926885,216.424749 174.305494,217.662168 172.183966,221.258726 C171.195096,222.987805 170.937786,225.038389 171.468928,226.957062 C172.000071,228.875736 173.275912,230.504436 175.014342,231.483032 L192.644713,241.298366 C193.781127,241.99783 195.091235,242.366169 196.426752,242.361694 C199.160351,242.353802 201.680353,240.886898 203.030963,238.517355 C204.028202,236.804276 204.290966,234.762813 203.75989,232.854194 C203.228813,230.945575 201.948709,229.330853 200.208791,228.374843 L200.208791,228.374843 Z M156.12876,203.591124 L138.506593,193.693996 C134.853156,191.681009 130.257126,192.909696 128.103935,196.475007 C127.110293,198.205568 126.852956,200.260724 127.389368,202.181726 C127.925779,204.102728 129.211281,205.729644 130.958923,206.699314 L148.581091,216.596442 C149.732975,217.235537 151.028498,217.573222 152.346721,217.577976 C155.78053,217.637496 158.815019,215.361149 159.708966,212.055128 C160.602913,208.749108 159.127263,205.260507 156.12876,203.591124 L156.12876,203.591124 Z M43.9966439,117.788746 C45.3350573,120.250882 47.9150321,121.787962 50.7239145,121.796674 C51.9729962,121.779692 53.2007666,121.471567 54.3090575,120.896935 C56.0780583,119.970699 57.4025454,118.378167 57.987995,116.473468 C58.5734445,114.568769 58.371322,112.509804 57.4265732,110.754423 L48.7549573,94.8862997 C46.7575353,91.2017557 42.1527591,89.8138638 38.4425436,91.7781106 C36.6747507,92.7055679 35.3523511,94.2993147 34.7698659,96.2043964 C34.1873807,98.1094781 34.3931825,100.167686 35.3414359,101.920622 L43.9966439,117.788746 Z M35.7434313,71.0023202 L27.0800194,55.1341968 C25.0422861,51.4994741 20.4645012,50.1549572 16.7758097,52.1078021 C15.0033171,53.0305407 13.6761756,54.6236234 13.0917065,56.5301499 C12.5072374,58.4366764 12.7142972,60.4972775 13.666498,62.250314 L22.3463179,78.1184374 C23.6780584,80.5644994 26.2576058,82.075489 29.0489766,82.044571 C30.3080833,82.0666795 31.5506431,81.7562634 32.6505276,81.1448321 C34.42183,80.2208789 35.746896,78.6265744 36.3283998,76.719658 C36.9099035,74.8127415 36.6991508,72.7528956 35.7434313,71.0023202 L35.7434313,71.0023202 Z" id="entrepreneurs_icon" opacity="0.497339221"></path>
                <path d="M246.643366,34.6855842 C246.643366,15.9565152 231.414898,0.773604965 212.62963,0.773604965 C193.844362,0.773604965 178.615893,15.9565152 178.615893,34.6855842 C178.618068,40.361969 180.093374,45.9412168 182.898375,50.8808854 L105.321459,130.875858 C98.0440819,126.543533 89.7269249,124.254254 81.2509561,124.250507 C64.5861464,123.93692 49.050846,132.621436 40.6263208,146.960419 C32.2017955,161.299402 32.2017955,179.056781 40.6263208,193.395764 C49.050846,207.734747 64.5861464,216.419263 81.2509561,216.105675 L82.6538382,216.023881 L99.9806621,282.931742 C89.9767956,288.918228 83.8383405,299.681895 83.7941926,311.314416 C83.4802072,329.87625 98.1941837,345.23967 116.806366,345.783677 C135.418549,346.327684 151.009978,331.850047 151.787187,313.301752 C152.564396,294.753458 138.238462,279.029715 119.645623,278.024074 L102.310595,211.116214 C117.936754,203.425114 127.864577,187.593185 127.956263,170.218989 C127.963199,161.084992 125.203841,152.161727 120.039414,144.617326 L197.624534,64.622353 C208.090967,69.7092807 220.437695,69.117862 230.366783,63.0539717 C240.295871,56.9900813 246.433585,46.2926863 246.643366,34.6855842 L246.643366,34.6855842 Z M104.099064,298.799865 C107.656023,295.01739 112.615731,292.858445 117.816133,292.82887 C119.847369,292.846623 121.861026,293.206117 123.772229,293.892198 C132.652177,297.039497 137.751298,306.32763 135.624563,315.48142 C133.497829,324.635211 124.821933,330.742063 115.458418,329.676112 C106.094903,328.610162 99.0230953,320.710578 99.0207954,311.314416 C99.0324494,306.646246 100.851749,302.162883 104.099064,298.799865 L104.099064,298.799865 Z M106.937644,176.026395 C105.75475,181.009124 103.123536,185.533109 99.373567,189.031712 C98.6429088,189.678155 97.8730111,190.279119 97.0682462,190.83119 C92.5255611,194.289135 86.9662984,196.157761 81.2509561,196.147829 C79.9625804,196.123209 78.6772351,196.013912 77.4032855,195.820652 C71.9306957,195.028847 66.8366096,192.572262 62.8165937,188.786329 C59.1192922,185.241892 56.5512035,180.690059 55.433004,175.699217 C55.0240652,173.900662 54.8122542,172.063145 54.8012969,170.218989 C54.8177519,163.213128 57.6832846,156.513439 62.7427578,151.651648 C66.3799453,148.198787 70.9070421,145.820252 75.8199157,144.780915 C77.6085546,144.422675 79.4267246,144.230996 81.2509561,144.208353 C84.4757379,144.214202 87.6706541,144.824637 90.669135,146.007831 C97.2288406,148.447654 102.543127,153.392816 105.436315,159.749299 C107.773686,164.848257 108.30309,170.587946 106.937644,176.026395 L106.937644,176.026395 Z M212.621426,53.17113 C211.431648,53.1590427 210.246461,53.0219614 209.085507,52.7621577 C201.914638,51.4490216 196.177495,46.0745441 194.416775,39.02069 C194.043414,37.6054521 193.850467,36.1489368 193.842496,34.6855842 C193.742658,27.0880924 198.256154,20.1831663 205.267928,17.2065005 C212.279702,14.2298348 220.400417,15.7712369 225.82465,21.1083955 C231.248883,26.4455541 232.901858,34.520945 230.008979,41.5503857 C227.1161,48.5798265 220.250573,53.1704779 212.62963,53.17113 L212.621426,53.17113 Z" id="entrepreneurs_icon-2"></path>
            </g>
            <g id="Group-6" transform="translate(96.000000, 144.000000)">
                <g id="Group-35">
                    <g id="Shape">
                        <g id="Group-3">
                            <mask id="mask-3" fill="white">
                                <use xlink:href="#path-2"></use>
                            </mask>
                            <use id="Mask" fill="#FFFFFF" xlink:href="#path-2"></use>
                            <path d="M20.643652,72.7398587 L25.8589558,72.7398587 L25.8589558,70.4025809 L24.2094841,70.4025809 L24.2094841,71.1139565 L22.7660194,71.1139565 L22.7660194,69.1508667 L25.0228931,69.1508667 L25.0228931,67.5186815 L22.7660194,67.5186815 L22.7660194,65.5555918 L24.2094841,65.5555918 L24.2094841,66.2683637 L25.8589558,66.2683637 L25.8589558,63.9289917 L20.643652,63.9289917 L20.643652,65.5555918 L21.1165477,65.5555918 L21.1165477,71.1125607 L20.643652,71.1125607 L20.643652,72.7398587 L20.643652,72.7398587 L20.643652,72.7398587 Z M19.8472332,71.8211438 L19.8472332,67.5193799 L17.0721564,67.5193799 L17.0721564,69.1515646 L18.1991774,69.1515646 L18.1991774,71.1146549 L16.4137836,71.1146549 L16.4137836,65.557686 L18.1991774,65.557686 L18.1991774,66.2704579 L19.8472332,66.2704579 L19.8472332,64.858178 L18.7782623,63.9324821 L15.8262035,63.9324821 L14.7572327,64.858178 L14.7572327,71.8232379 L15.8077974,72.7426512 L18.7775544,72.7426512 L19.8472332,71.8211438 L19.8472332,71.8211438 L19.8472332,71.8211438 Z M38.9860603,65.5569881 L38.9860603,63.930388 L36.1876219,63.930388 L36.1876219,65.5569881 L36.4141588,65.5569881 L34.7880487,67.5912854 L34.7880487,65.5569881 L35.2595286,65.5569881 L35.2595286,63.930388 L32.6670971,63.930388 L32.6670971,65.5569881 L33.138577,65.5569881 L33.138577,71.1139565 L32.6670971,71.1139565 L32.6670971,72.7398587 L35.2595286,72.7398587 L35.2595286,71.1139565 L34.7880487,71.1139565 L34.7880487,70.2448076 L35.5844674,69.2402249 L36.5677791,71.1153528 L36.1876219,71.1153528 L36.1876219,72.7419529 L38.9860603,72.7419529 L38.9860603,71.1153528 L38.4345846,71.1153528 L36.6994537,67.8356243 L38.5131646,65.5583843 L38.9860603,65.5569881 L38.9860603,65.5569881 L38.9860603,65.5569881 L38.9860603,65.5569881 Z M26.6553746,72.7398587 L31.8706784,72.7398587 L31.8706784,70.4025809 L30.2212067,70.4025809 L30.2212067,71.1139565 L28.7763261,71.1139565 L28.7763261,69.1508667 L31.0339078,69.1508667 L31.0339078,67.5186815 L28.7763261,67.5186815 L28.7763261,65.5555918 L30.2212067,65.5555918 L30.2212067,66.2683637 L31.8706784,66.2683637 L31.8706784,63.9289917 L26.6553746,63.9289917 L26.6553746,65.5555918 L27.1282703,65.5555918 L27.1282703,71.1125607 L26.6553746,71.1125607 L26.6553746,72.7398587 L26.6553746,72.7398587 L26.6553746,72.7398587 Z M26.905273,12.4411624 C17.8954764,12.4411624 13.6825983,19.1025438 13.6825983,25.8777175 C13.6825983,26.2526034 13.8192284,26.387339 13.8744467,26.4089804 C13.8871894,26.4131691 14.0047054,26.4473766 14.1193897,26.1660376 C16.0605277,21.3818784 21.0287647,17.9876595 26.8415596,17.9876595 L26.905273,17.9883576 L26.9689866,17.9876595 C32.7817814,17.9876595 37.7500185,21.3818784 39.6911564,26.1660376 C39.8044248,26.4473766 39.9233567,26.4131691 39.9346835,26.4089804 C39.9913177,26.387339 40.1279478,26.2526034 40.1279478,25.8777175 C40.1279478,19.1025438 35.9150697,12.4411624 26.905273,12.4411624 L26.905273,12.4411624 L26.905273,12.4411624 Z M36.2223103,22.2475368 C35.5476552,21.598293 34.7993755,21.0300301 33.9895062,20.5441444 C33.8592475,20.4617672 33.4974964,20.2362772 33.187424,20.0750134 C32.7867369,20.7214648 32.0094322,21.3050861 31.021873,21.6897456 C29.4085056,22.4213666 27.4921452,22.8276677 25.3874759,22.9966107 C23.7932226,23.1257613 22.3639164,23.1090066 21.4152932,23.1543839 C19.751663,23.2339686 18.4342094,23.8196843 17.6031023,24.8396254 C16.8272134,24.8165877 16.1723803,24.9520214 15.7766486,25.3345866 C15.5883398,25.5077183 15.4573732,25.7346046 15.3632188,25.9901134 C15.3242828,25.7143593 15.3101242,25.4281335 15.3299462,25.1363229 C15.1027014,25.5454163 14.8995261,25.968472 14.7232521,26.4026974 L14.6998905,26.4585464 C14.80254,26.9451302 14.9710268,27.4205442 15.1812814,27.86943 C15.1940241,28.1019012 15.2088905,28.3204102 15.224465,28.5095984 C15.3172035,29.4164455 15.5635624,30.3100284 15.958586,31.1721963 C15.7936389,31.3599883 15.4361354,31.3571959 15.3264066,31.0297815 L15.3002132,30.9536873 C15.2740199,30.8761969 15.2237571,30.7379709 15.1480088,30.5662353 C14.7416582,29.6251808 13.910551,28.2917876 12.6483158,28.6352585 C11.0073393,29.08205 12.2115244,32.095798 12.6575189,32.933532 C13.2585496,34.0630766 14.5448543,35.4425453 15.9238976,35.6861863 C16.0017697,35.7001485 16.1822912,35.8488463 16.2099004,35.9228461 C17.5556711,39.6738002 18.5687157,41.3967398 19.7261776,42.4592657 C19.888293,42.6065672 20.0581958,42.7454914 20.232346,42.8767364 C20.232346,42.8767364 20.574983,43.1427168 20.9098328,43.3333013 C22.1925979,44.1047148 23.6403102,44.6094495 24.8876789,45.3550327 C25.4780907,45.7096734 26.2136276,45.6894281 26.8783718,45.693617 C28.3883817,45.6803526 28.277945,45.6335791 29.3674458,45.0709012 C30.9036491,44.2785445 32.7520485,43.6355839 34.0369373,42.4571711 C35.1929834,41.3953436 36.2074439,39.6738002 37.5546304,35.922148 C37.6282549,35.7182994 38.7559838,35.3489983 38.9648225,35.228225 C40.605799,34.2753026 41.9126337,31.9980624 41.9459063,30.1187458 C41.9791789,28.1270332 40.135735,28.19475 39.1531313,29.5895771 C39.0497738,29.738973 38.9485401,29.8988406 38.8543858,30.0656893 L38.7850088,30.1934437 C38.734038,30.2918775 38.685191,30.3917074 38.6412995,30.4929336 C38.6051952,30.5864806 38.5719226,30.6681597 38.5379421,30.7582161 L38.5216597,30.78265 L38.4883871,30.8754988 L38.4466194,30.9997627 L38.4232578,31.0660833 C38.2915832,31.3613846 37.9475303,31.3488185 37.7910783,31.1610265 C38.1853941,30.3009529 38.4296291,29.4115587 38.5223677,28.5082022 C38.5917446,27.6006571 38.7227112,26.0445662 37.9786791,25.3422658 C37.7089587,25.0769834 37.3174746,24.9282856 36.8502423,24.8668518 C36.6229975,24.1952684 36.4014161,23.3610249 36.2223103,22.2475368 L36.2223103,22.2475368 L36.2223103,22.2475368 Z M20.8524907,46.8105957 C20.8192181,46.5830111 20.7816979,46.3596154 20.7385143,46.1362196 C16.5454582,45.9952012 15.7695693,45.8730317 14.7027222,43.244641 C14.5108738,42.7531707 14.3501742,42.2344737 14.205049,41.6913427 C13.4872102,39.5621021 12.9343187,37.0125982 12.6008847,34.1950198 C11.6784548,32.9879847 11.1064492,31.4835541 11.0816717,30.132708 C11.0625576,28.950805 11.558815,28.2457122 12.244797,27.9783354 C12.244797,24.0451743 12.6469,20.2369753 13.3576595,16.9474732 C13.695341,14.5843652 14.5434384,12.3406343 16.3132579,10.7098455 C18.4653582,8.8088874 21.9094268,7.15645713 26.8882828,7.00217443 C26.8882828,7.00217443 27.4178128,6.9861179 28.2170632,7.04126872 C30.8385197,7.22138149 34.5070014,8.02700237 35.6283589,10.6798267 C35.6736663,10.9095054 35.7055231,11.1517501 35.7210975,11.4058628 C35.7862268,12.513766 35.7387957,13.5469712 35.5950863,14.5075729 C35.8187915,14.6807046 36.0361254,14.8601193 36.2463799,15.045817 C36.4580503,13.895329 36.5323827,12.6645581 36.4552186,11.3639761 C36.4481393,11.2550707 36.4403521,11.1496558 36.4276094,11.0449391 C36.5769821,11.0044486 36.6874189,10.9807128 36.8353758,10.9807128 C37.8016972,10.9807128 38.685191,11.8631259 39.361262,13.320783 C39.3817919,13.3647641 39.4016139,13.4094433 39.4221438,13.4548205 C39.5063872,13.645405 39.5863831,13.8450649 39.6642551,14.0538003 C39.783187,14.3609694 39.9226488,14.7421384 40.0444123,15.1484394 C40.125824,15.4193067 40.1994485,15.7013438 40.2589145,15.9812866 L40.2766126,16.0636638 C41.1147991,19.5458447 41.5926503,23.6870431 41.5926503,27.9713543 L41.5926503,28.0348825 C43.5146742,28.8565599 42.4308368,32.007836 41.7568896,33.271418 C41.6075168,33.5513608 41.4361983,33.8257187 41.2464737,34.0896049 C40.9144556,36.9497683 40.3573164,39.5348759 39.6302746,41.6913427 C39.4879811,42.2323791 39.323034,42.7510761 39.1425124,43.244641 C38.0707097,45.8786164 37.2955288,45.9938049 33.0741556,46.1362196 C33.030972,46.3589175 32.9927439,46.5844074 32.9594713,46.8119919 C34.3972726,46.7505578 34.7045132,47.1868779 35.0641405,47.6860275 L36.0056845,49.4285141 C36.2754049,50.0435506 39.136141,50.5189645 39.136141,50.5189645 C44.1411903,51.6603773 52.051575,53.504788 52.1648434,58.1451366 C52.3028892,63.8556899 53.9070539,67.2394372 53.8298897,74.4669872 L0.002602205,74.4669872 C-0.0731460659,67.2394372 1.52889446,63.8556899 1.66906416,58.1451366 C1.78304053,53.5054864 9.69271742,51.6603773 14.6977667,50.5189645 C14.6977667,50.5189645 17.557087,50.0428527 17.8282233,49.4285141 L18.7690593,47.6860275 C19.1272707,47.1882742 19.4323876,46.7547466 20.8524907,46.8105957 L20.8524907,46.8105957 L20.8524907,46.8105957 Z M20.9792097,44.2171108 C21.4952891,45.7075792 21.6984644,47.1184629 21.7494351,48.7185347 L21.8117328,49.788042 C21.9002238,50.4177387 22.1260527,50.9364357 22.9253032,51.421623 L24.6660975,52.4373754 L24.58327,57.4016476 C24.4211545,57.5014777 24.3043465,57.6760052 24.299391,57.9280239 L24.2873562,58.4697582 C24.2816928,58.7259652 24.3942533,58.9095687 24.5563687,59.029644 C24.5485815,59.5127372 25.2834106,59.5260011 25.2919057,59.0310403 C25.4582687,58.9319082 25.5793244,58.7545881 25.5849878,58.4983811 L25.5977305,57.9566463 C25.6041018,57.6948542 25.4865858,57.5098548 25.3188069,57.405836 L25.3938473,52.8625253 L25.8186039,53.1096572 C26.1201811,53.2639396 26.5201604,53.3414301 26.9243871,53.3414301 C27.3293218,53.3414301 27.7123107,53.2639396 28.0124721,53.1096572 L28.3912134,52.8890536 L28.4421842,59.1832284 C28.2814846,59.2865489 28.1682162,59.4666616 28.169632,59.7207744 L28.1717558,60.2618108 C28.1731717,60.519414 28.2906877,60.6981309 28.4556348,60.8140174 C28.4598824,61.2964126 29.1940035,61.2922238 29.1911718,60.7972626 C29.3539952,60.6953384 29.4708033,60.5159236 29.4693874,60.2583203 L29.4679716,59.7158877 C29.4665557,59.4568881 29.3447921,59.2767755 29.1777212,59.1762476 L29.1239187,52.4652999 L30.9064808,51.4258118 C31.7043154,50.9413224 31.9308523,50.421927 32.0193432,49.7929287 L32.0497841,49.2609674 C32.0717298,47.4137641 32.2642862,45.8409184 32.8504504,44.1654506 C32.7067411,44.2464316 32.5587842,44.3260159 32.4051639,44.4042049 C31.3574308,44.937562 30.2594348,45.3801647 29.2527615,45.9854278 C28.5264276,46.421049 27.709479,46.4224453 26.8769559,46.4287283 C25.2572172,46.4154644 25.2444745,46.3414643 24.0494925,45.7229378 C23.0591015,45.2098254 21.9780958,44.7679207 20.9792097,44.2171108 L20.9792097,44.2171108 L20.9792097,44.2171108 Z M26.8684608,31.0472343 C26.4606944,31.0479324 26.111686,31.1407813 25.9722242,31.495422 C25.8384259,31.8340061 25.4334912,32.5865705 25.4334912,32.5865705 C24.7375982,33.852945 23.3620946,35.1200177 21.6021862,35.103263 C19.7410441,35.0858103 18.1163499,33.8941336 17.1627712,32.4162313 C16.2969755,31.1680076 15.7908072,29.8353125 15.6527612,28.4739947 C15.5550672,27.2013372 15.5550672,26.1220566 16.0718545,25.6466425 C17.2300243,24.5045319 22.0163239,26.1862828 23.6735828,27.2369409 C23.6735828,27.2369409 24.3078861,27.5678458 25.426412,28.5521832 C25.7258654,28.8153713 26.0486805,29.1365027 26.4238822,29.4890491 C26.5583884,29.6154073 26.7806778,29.6642751 26.866337,29.6558978 C26.9534122,29.6642751 27.1813649,29.6154073 27.317287,29.4890491 C27.6931966,29.1365027 28.0167196,28.8153713 28.3161731,28.5521832 C29.4325752,27.5671477 30.0675864,27.2369409 30.0675864,27.2369409 C31.7255532,26.1862828 36.5125607,24.5045319 37.6707305,25.6466425 C38.1853941,26.1227546 38.1853941,27.2020353 38.0898238,28.4739947 C37.9517779,29.8353125 37.4441937,31.1680076 36.578398,32.4162313 C35.6255272,33.8941336 34.000833,35.0858103 32.1396909,35.103263 C30.3783667,35.1200177 29.0049868,33.8522469 28.3083859,32.5865705 C28.3083859,32.5865705 27.905575,31.8340061 27.7703608,31.495422 C27.6316069,31.1407813 27.2762272,31.0479324 26.8684608,31.0472343 L26.8684608,31.0472343 L26.8684608,31.0472343 Z M16.9964082,28.8782014 C16.6070479,30.7777632 18.2260787,34.4540192 21.6099734,34.4854342 C23.6509292,34.5049813 25.1722659,32.3610805 25.3046484,31.0870267 C25.4979126,29.219578 23.6785383,27.8924677 21.6694393,27.5385251 C20.4072041,27.3165256 17.3744416,27.037979 16.9964082,28.8782014 L16.9964082,28.8782014 L16.9964082,28.8782014 Z M36.7475927,28.8782014 C36.3688514,27.037979 33.3367968,27.3165256 32.0738536,27.5385251 C30.0647547,27.8924677 28.2467962,29.219578 28.4386446,31.0870267 C28.5703192,32.3610805 30.0937797,34.5049813 32.1347354,34.4854342 C35.5165063,34.4540192 37.1376609,30.7777632 36.7475927,28.8782014 L36.7475927,28.8782014 L36.7475927,28.8782014 Z M18.7648117,30.9369327 L17.7956586,30.6625748 C17.3248866,30.5292355 17.527354,29.8318219 17.9988339,29.9651612 L18.6628701,30.1529533 C18.6904793,30.1124628 18.7209202,30.0740666 18.7513611,30.0363686 L18.4568631,29.9072179 C18.0087448,29.7103505 18.3089062,29.0478425 18.7556086,29.2440119 L19.3460204,29.5030113 C19.9654572,29.0960122 20.7944406,28.8907674 21.672979,28.9515031 C23.0414033,29.0457482 24.2448805,29.763407 24.6307012,30.7875368 C24.8098069,31.2636489 24.0848888,31.5282332 23.906491,31.0521211 C23.7103951,30.5271411 23.112904,30.0335762 22.2761334,29.8164634 C22.554349,30.0272932 22.7235438,30.3686698 22.6980583,30.7393671 C22.6548748,31.3292714 22.1366717,31.7739686 21.5384727,31.7320819 C20.9402737,31.6908933 20.4900317,31.1791774 20.5317994,30.5899711 C20.5587007,30.2011229 20.7937327,29.8758029 21.1222111,29.7103505 C20.1976575,29.7745767 19.4982249,30.2004249 19.2093903,30.7274992 C19.1293945,30.8936497 18.9722346,30.9962722 18.7648117,30.9369327 L18.7648117,30.9369327 L18.7648117,30.9369327 Z M35.1321016,30.1536514 L35.7961378,29.9658594 C36.2690336,29.83252 36.470793,30.5299336 35.9993131,30.6632729 L35.0315758,30.9376308 C34.824153,30.9962722 34.667701,30.8943479 34.599032,30.7498388 C34.2988706,30.2018211 33.599438,29.7766711 32.6741764,29.7124448 C33.0033628,29.8778973 33.236979,30.2032173 33.2645881,30.5920655 C33.3077717,31.1812717 32.8554059,31.6929876 32.2579149,31.7341762 C31.6604238,31.7760629 31.1408048,31.3313658 31.100453,30.7414614 C31.0728438,30.3707641 31.2413306,30.0293875 31.5209621,29.8185578 C30.6841915,30.0349724 30.0888242,30.5292355 29.8906044,31.0542154 C29.7093749,31.5303276 28.9879965,31.2657433 29.1663943,30.7896311 C29.5522149,29.7655013 30.7564001,29.0471444 32.1227007,28.9535974 C33.0019469,28.8928617 33.8302224,29.0981065 34.4496592,29.5051056 L35.040071,29.2461062 C35.4881892,29.0492387 35.7883506,29.7124448 35.3388165,29.9093123 L35.0457344,30.0384629 C35.0740515,30.0747648 35.1044924,30.1131609 35.1321016,30.1536514 L35.1321016,30.1536514 L35.1321016,30.1536514 Z M40.2093595,29.5239547 C40.6199576,29.2251629 41.0263082,29.7962182 40.61571,30.0943119 C40.2744889,30.3435377 39.9176933,30.9606685 39.685493,31.8221382 C39.7364638,32.020402 39.7506223,32.1670054 39.6677948,32.4650991 C39.4051535,33.4047574 38.5591799,33.8326998 38.7871326,32.5055896 C38.8671285,32.0336661 38.9513718,31.7383649 39.0108378,31.5568558 C39.273479,30.6555936 39.685493,29.9058217 40.2093595,29.5239547 L40.2093595,29.5239547 L40.2093595,29.5239547 Z M13.5863201,29.5239547 C14.1108946,29.9058217 14.5243244,30.6555936 14.7862577,31.5568558 C14.8457236,31.7390629 14.929967,32.0343642 15.0099628,32.5055896 C15.2364998,33.8333979 14.390526,33.4047574 14.1285928,32.4650991 C14.0464732,32.1670054 14.0570921,32.020402 14.1116025,31.8221382 C13.8794022,30.9606685 13.5218987,30.3435377 13.1799696,30.0943119 C12.7693715,29.7962182 13.175722,29.2251629 13.5863201,29.5239547 L13.5863201,29.5239547 L13.5863201,29.5239547 Z M26.4854719,41.9643045 C26.7700588,42.0054929 26.8323565,41.5824371 26.5484775,41.5419466 C26.3580449,41.5147205 26.2284941,41.5077396 26.0444329,41.4386262 C25.7747124,41.336702 25.6196762,41.736022 25.8893967,41.8365499 C26.121597,41.9252102 26.2518557,41.9314932 26.4854719,41.9643045 L26.4854719,41.9643045 L26.4854719,41.9643045 Z M29.3766489,41.3045891 C28.6920827,41.8679649 27.9360159,42.3014925 26.9541201,42.3189452 L26.876248,42.3189452 C25.7485191,42.2980016 24.9174119,41.7311353 24.1542658,41.0469858 C23.8463172,40.8026465 23.5319973,40.505949 23.1709541,40.1527045 C22.9373379,39.9251204 22.6562906,39.756177 22.3511737,39.6430831 C22.2747176,39.6228378 22.2060486,39.5998 22.1494143,39.5760643 C21.7112071,39.3987442 21.9681848,38.7327453 22.4233824,38.8995941 L22.4502836,38.9107638 L22.5217843,38.9338016 C23.6792463,39.2772727 25.5056998,38.5191235 26.9130602,39.1711596 C28.3211286,38.5184251 30.1525377,39.2786689 31.3099996,38.9324054 L31.3822082,38.9107638 L31.4084015,38.8995941 C31.8635991,38.7327453 32.1205769,39.3987442 31.6823696,39.5760643 C31.6257354,39.5998 31.5591902,39.6221399 31.4848578,39.6430831 C30.561012,39.9802711 30.1964292,40.7488921 29.3766489,41.3045891 L29.3766489,41.3045891 L29.3766489,41.3045891 Z M23.9687887,39.8699693 C24.2427567,40.1359502 24.524512,40.4151945 24.8246734,40.6700052 C25.2933215,40.9883442 25.9113425,41.2159288 26.9208474,41.2201176 C27.9232732,41.2159288 28.5398783,40.986948 29.0071106,40.6693073 C29.3058561,40.4158929 29.5861955,40.1359502 29.8615794,39.8699693 C28.7649993,39.955837 27.523294,39.9788748 26.9498725,39.9802711 L26.8854511,39.9802711 C26.3070741,39.9795727 25.063953,39.955837 23.9687887,39.8699693 L23.9687887,39.8699693 L23.9687887,39.8699693 Z M24.7524647,36.3305434 C24.7524647,36.3305434 24.7928166,36.2858641 24.867149,36.2307134 C25.6579043,35.659658 26.1279684,36.592335 26.905273,36.592335 C27.6868253,36.592335 28.1675082,35.6638467 28.9547239,36.2307134 C29.0290563,36.2858641 29.0694082,36.3305434 29.0694082,36.3305434 C29.4014263,36.6872783 28.8591537,37.1773528 28.5271356,36.8213158 C28.3282078,36.6782027 27.9147781,37.0684473 27.7165583,37.1578055 C27.5013482,37.2548429 27.2422467,37.3176734 26.905273,37.3176734 C26.3396388,37.3176734 26.0578835,37.1724661 25.6423299,36.8652968 C25.5290615,36.7815237 25.4115455,36.736146 25.2961532,36.8206179 C24.9634272,37.1773528 24.4211545,36.6879767 24.7524647,36.3305434 L24.7524647,36.3305434 L24.7524647,36.3305434 Z" id="Shape" fill="#7E8E9F" mask="url(#mask-3)"></path>
                        </g>
                    </g>
                </g>
            </g>
            <circle id="Oval" fill="#2BDBE1" cx="267" cy="252" r="19"></circle>
            <circle id="Oval-Copy" fill="#2BDBE1" cx="19" cy="226" r="19"></circle>
            <circle id="Oval-Copy-2" fill="#2BDBE1" cx="45" cy="29" r="19"></circle>
            <g id="Shape" transform="translate(235.000000, 16.000000)">
                <mask id="mask-5" fill="white">
                    <use xlink:href="#path-4"></use>
                </mask>
                <use id="Mask" fill="#FFFFFF" xlink:href="#path-4"></use>
                <path d="M24.7174016,52.044453 C25.0268406,52.1658801 25.2832933,52.3638832 25.4470204,52.6083788 L25.4655653,52.5602454 C25.2970695,52.3190315 25.0400871,52.1232166 24.7327676,52.0039771 L24.7174016,52.044453 L24.7174016,52.044453 L24.7174016,52.044453 Z M25.4072806,52.7046456 C25.2377253,52.4492107 24.9796829,52.2495664 24.6744829,52.1407194 L24.6495796,52.1937754 C24.9590182,52.3020756 25.2154709,52.5066425 25.3802579,52.7680941 L25.4072806,52.7046456 L25.4072806,52.7046456 L25.4072806,52.7046456 Z M24.7709177,51.9066163 C25.0718788,52.0389831 25.3235625,52.2326104 25.4994765,52.4650726 L25.5100737,52.4322543 C25.3320403,52.202527 25.0798265,52.0110874 24.7815149,51.879815 L24.7709177,51.9066163 L24.7709177,51.9066163 L24.7709177,51.9066163 Z M24.8133067,51.7851891 C25.1094988,51.9295889 25.3564142,52.1248574 25.5333877,52.3567725 L25.5439849,52.3228605 C25.363832,52.09368 25.1163869,51.8995059 24.822844,51.7567466 L24.8133067,51.7851891 L24.8133067,51.7851891 L24.8133067,51.7851891 Z M25.5688882,52.2337044 C25.3876758,52.0099938 25.1412905,51.8180074 24.8498671,51.6719663 L24.8413893,51.6987679 C25.135462,51.8475436 25.3818472,52.0428117 25.5593508,52.2681636 L25.5688882,52.2337044 L25.5688882,52.2337044 L25.5688882,52.2337044 Z M24.4503517,52.5586045 C24.7608502,52.6614348 25.0141239,52.8906153 25.1550668,53.1887137 L25.208053,53.1033866 C25.0570427,52.8151334 24.8021797,52.5903287 24.4959201,52.4825758 L24.4503517,52.5586045 L24.4503517,52.5586045 L24.4503517,52.5586045 Z M24.567981,52.3545847 C24.8784795,52.4656194 25.1328127,52.6871424 25.2811739,52.9693789 L25.3203835,52.8933502 C25.1630148,52.618224 24.9086815,52.403265 24.602422,52.2894954 L24.567981,52.3545847 L24.567981,52.3545847 L24.567981,52.3545847 Z M23.8664453,53.2488804 C24.1854216,53.2888095 24.4604192,53.5163487 24.6082505,53.841796 C24.6411018,53.8111654 24.6734233,53.7816292 24.7057449,53.750999 C24.5536746,53.4419609 24.2951024,53.2127804 23.9856639,53.1378458 C23.9464542,53.1761335 23.9067144,53.2127804 23.8664453,53.2488804 L23.8664453,53.2488804 L23.8664453,53.2488804 Z M24.2887445,52.7905199 C24.6003025,52.8889744 24.8567552,53.1187017 24.998758,53.4157065 C25.0215418,53.3856231 25.0432661,53.3566334 25.0649907,53.3254563 C24.9129204,53.0366563 24.659117,52.8123985 24.3517978,52.7051924 L24.2887445,52.7905199 L24.2887445,52.7905199 L24.2887445,52.7905199 Z M24.9044426,53.5327578 C24.7555517,53.2373943 24.4996288,53.0104015 24.1944291,52.9086653 C24.167406,52.9414836 24.1393234,52.9726606 24.1128305,53.003838 C24.423329,53.0913532 24.6819011,53.3199865 24.8249635,53.6251957 L24.9044426,53.5327578 L24.9044426,53.5327578 L24.9044426,53.5327578 Z M24.1626374,49.5940277 C24.0757403,49.8899384 23.9485737,50.1311523 23.7954439,50.2903203 C23.7345096,50.3619732 23.6990091,50.4407372 23.6990091,50.5282524 C23.6990091,50.6048279 23.7249723,50.6753872 23.7705402,50.7371948 L23.7869661,50.7557916 C23.9279089,50.9351978 24.0322918,51.1446874 24.0900463,51.3749616 C24.1997276,51.092725 24.2649004,50.7481341 24.2649004,50.3761947 C24.2649004,50.094505 24.2278102,49.8292248 24.1626374,49.5940277 L24.1626374,49.5940277 L24.1626374,49.5940277 Z M18.8020346,51.7228346 C18.8020346,51.7228346 19.0060308,51.7239283 19.2561251,51.8136316 C19.345142,51.8453559 22.1867862,53.0826016 23.0107198,53.4425077 L23.0107198,53.2833396 C22.6265707,53.0733032 21.8052863,52.6302574 21.0629509,52.2528485 C20.0530361,51.7392434 19.3515004,50.986613 19.3515004,50.986613 C19.2068484,50.8433068 19.0107998,50.7557916 18.8020346,50.7557916 C18.5932693,50.7557916 18.3982806,50.8433068 18.2536283,50.986613 C18.2536283,50.986613 17.5520925,51.7392434 16.5421778,52.2528485 C15.8014321,52.6297105 14.9796178,53.0733032 14.5944088,53.2833396 L14.5944088,53.4425077 C15.4183429,53.0842425 18.2589271,51.8453559 18.3479436,51.8136316 C18.5990979,51.7239283 18.8020346,51.7228346 18.8020346,51.7228346 L18.8020346,51.7228346 L18.8020346,51.7228346 Z M23.7308008,47.6511905 L19.8893091,47.6511905 C19.8893091,47.6511905 19.7981731,47.7879331 20.1934492,47.9826544 C20.5897852,48.1762817 22.5995477,49.2838955 22.5995477,49.2838955 C22.5995477,49.2838955 23.1447746,49.6525536 23.4833557,49.2100549 C24.0985241,48.4065562 23.7308008,47.6511905 23.7308008,47.6511905 L23.7308008,47.6511905 L23.7308008,47.6511905 Z M12.8882568,52.044453 L12.8718309,52.005618 C12.5645118,52.1248574 12.309119,52.3190315 12.1390336,52.5607922 L12.1575785,52.6100196 C12.3213056,52.3638832 12.578288,52.1658801 12.8882568,52.044453 L12.8882568,52.044453 L12.8882568,52.044453 Z M12.1973183,52.7046456 L12.2254009,52.7664532 C12.3880681,52.5055485 12.6455807,52.3009815 12.9560792,52.1926817 L12.930116,52.1396257 C12.6233263,52.2495664 12.365814,52.4497575 12.1973183,52.7046456 L12.1973183,52.7046456 L12.1973183,52.7046456 Z M12.8336812,51.9066163 L12.823084,51.879815 C12.5253022,52.0110874 12.2725586,52.202527 12.0934652,52.4322543 L12.1040625,52.4650726 C12.281036,52.2326104 12.5327201,52.040624 12.8336812,51.9066163 L12.8336812,51.9066163 L12.8336812,51.9066163 Z M12.7912922,51.7851891 L12.7817549,51.7572934 C12.4876818,51.9005996 12.2407668,52.09368 12.060614,52.3234073 L12.0712112,52.3573197 C12.2471252,52.1248574 12.4951001,51.927948 12.7912922,51.7851891 L12.7912922,51.7851891 L12.7912922,51.7851891 Z M12.0357107,52.2337044 L12.045248,52.2676164 C12.224341,52.0411708 12.4696667,51.8464495 12.7632096,51.6982207 L12.7536723,51.6703255 C12.4633083,51.8180074 12.2169231,52.0099938 12.0357107,52.2337044 L12.0357107,52.2337044 L12.0357107,52.2337044 Z M13.1553067,52.5586045 L13.1086788,52.4825758 C12.8024192,52.5903287 12.5475562,52.8134925 12.3965459,53.1033866 L12.4484722,53.1887137 C12.590475,52.8906153 12.8448082,52.660888 13.1553067,52.5586045 L13.1553067,52.5586045 L13.1553067,52.5586045 Z M13.0366179,52.3545847 L13.0037666,52.2905894 C12.697507,52.4038122 12.4426436,52.6198653 12.2858051,52.8944438 L12.3228953,52.9710197 C12.4712564,52.6871424 12.7261194,52.4656194 13.0366179,52.3545847 L13.0366179,52.3545847 L13.0366179,52.3545847 Z M13.7381536,53.2488804 C13.698944,53.2138744 13.6586744,53.1761335 13.618935,53.1378458 C13.3094961,53.2127804 13.0498644,53.4419609 12.898854,53.750999 C12.9311755,53.7816292 12.9619074,53.8117126 12.9963483,53.841796 C13.1441797,53.5163487 13.4191773,53.2882623 13.7381536,53.2488804 L13.7381536,53.2488804 L13.7381536,53.2488804 Z M13.3147949,52.7905199 L13.2528011,52.7051924 C12.9465415,52.8118517 12.6916784,53.0355623 12.5396082,53.3254563 C12.5602729,53.3560866 12.5830571,53.3856231 12.6047814,53.4146124 C12.7478437,53.1170608 13.0032365,52.8884272 13.3147949,52.7905199 L13.3147949,52.7905199 L13.3147949,52.7905199 Z M12.6990963,53.5327578 L12.7796354,53.6257429 C12.9216382,53.3210805 13.1802104,53.0924473 13.4917684,53.0049321 C13.4636858,52.9726606 13.4366627,52.9414836 13.4101698,52.9086653 C13.1049701,53.0109488 12.8501067,53.2373943 12.6990963,53.5327578 L12.6990963,53.5327578 L12.6990963,53.5327578 Z M20.0662826,48.987438 C20.8425288,49.6552881 22.308654,50.1174776 23.4277202,50.4374551 C23.6190001,50.4926992 23.7011285,50.1924127 23.5071994,50.1366217 C22.3727672,49.8117217 20.9760538,49.3637532 20.2596819,48.7473182 C19.3435524,47.9607754 18.3723175,47.8924043 17.3465066,48.7456773 C16.6190074,49.351173 15.2291824,49.8128157 14.0958098,50.1366217 C13.8785667,50.1995234 14.0067933,50.4855885 14.175289,50.4374551 C15.2959449,50.1174776 16.7498831,49.6416139 17.5346072,48.9896261 C18.4459681,48.2320726 19.2593045,48.2922394 20.0662826,48.987438 L20.0662826,48.987438 L20.0662826,48.987438 Z M13.4419615,49.5940277 C13.3757288,49.8292248 13.3396981,50.094505 13.3396981,50.3751006 C13.3396981,50.7481341 13.4048713,51.092725 13.5134927,51.3749616 C13.5723071,51.1446874 13.6772197,50.934651 13.8176328,50.7552448 L13.8329987,50.7361007 C13.8796266,50.6753872 13.9055898,50.6037339 13.9055898,50.5277052 C13.9055898,50.441284 13.8695591,50.3619732 13.8102149,50.2903203 C13.6576149,50.1311523 13.5288586,49.8899384 13.4419615,49.5940277 L13.4419615,49.5940277 L13.4419615,49.5940277 Z M13.873798,47.6511905 C13.873798,47.6511905 13.5076641,48.4065562 14.1212432,49.2106018 C14.4598243,49.6531004 15.0050512,49.2844427 15.0050512,49.2844427 C15.0050512,49.2844427 17.0137537,48.1784694 17.4111497,47.9832012 C17.8074857,47.7890271 17.7163494,47.6522845 17.7163494,47.6522845 L13.873798,47.6511905 L13.873798,47.6511905 L13.873798,47.6511905 L13.873798,47.6511905 Z M24.7046849,49.9375246 C24.7046849,49.4129806 24.7385961,47.7086223 24.7385961,47.7086223 C24.7417755,47.4991331 24.5028082,47.5844602 24.5017483,47.7042465 C24.5017483,47.7042465 24.4678374,49.4118866 24.4678374,49.9375246 C24.4678374,50.0687974 24.4646581,50.2159325 24.468897,50.3652554 C24.4832034,50.8515116 24.5928846,51.1649251 24.7502533,51.3924647 C24.8991442,51.6090647 25.0845955,51.7414315 25.2854128,51.8973178 C25.6372403,52.17135 25.9519777,52.4683544 25.8205722,53.532211 C25.7813626,53.856017 25.5906124,54.1360658 25.3362792,54.3231292 C25.2907112,54.3564947 25.261569,54.3734507 25.261569,54.3734507 C25.1619549,54.4270535 25.1942764,54.6895991 25.3754892,54.5895038 C25.7283763,54.3920475 26.0054938,53.9725215 26.0563602,53.5639353 C26.206311,52.3441923 25.8316992,51.9744406 25.1953363,51.5171737 C24.6707741,51.1386707 24.7046849,50.514031 24.7046849,49.9375246 L24.7046849,49.9375246 L24.7046849,49.9375246 Z M13.1367614,49.9375246 C13.1367614,49.4118866 13.1039102,47.7031528 13.1039102,47.7031528 C13.1007312,47.5401558 12.8628234,47.5461724 12.8660027,47.7086223 C12.8660027,47.7086223 12.9009735,49.4135275 12.9009735,49.9375246 C12.9009735,50.221402 12.9115707,50.5096552 12.8543456,50.789704 C12.7372464,51.3612873 12.4071431,51.4991236 12.0314718,51.8245709 C11.6897113,52.1193876 11.4210721,52.5246925 11.5482387,53.5644821 C11.5980456,53.9610354 11.8264157,54.3017974 12.133205,54.5249612 C12.19096,54.5676248 12.2317593,54.5900506 12.2317593,54.5900506 C12.4097923,54.6906932 12.4437035,54.4297885 12.3435596,54.3739975 C12.0569052,54.2115477 11.8258855,53.8620337 11.7845564,53.5327578 C11.648912,52.4273317 11.9604704,52.1390785 12.5454368,51.7195525 C13.1553067,51.2786948 13.1367614,50.6064688 13.1367614,49.9375246 L13.1367614,49.9375246 L13.1367614,49.9375246 Z M21.7628973,55.7463451 C22.5815325,55.4591859 23.1649092,55.6489842 23.2242538,56.453577 C23.2396197,56.6696301 23.4695795,56.5460148 23.4611017,56.435527 C23.3853316,55.3754993 22.549211,55.2114086 21.6850078,55.513336 C20.9903602,55.7578316 20.5860761,55.7824451 20.2257707,54.6578749 C20.019655,54.0146383 19.4405169,53.6284774 18.8015048,53.6684064 C18.750638,53.6651247 18.5053123,53.6574671 18.2271353,53.7570157 C17.5701077,53.9905716 17.4498295,54.511287 17.2119217,55.0774009 C17.0275303,55.5155237 16.7981003,55.8218269 15.9195911,55.513336 C15.0553879,55.2097677 14.2203272,55.3754993 14.1434972,56.435527 C14.1323702,56.5979772 14.3692181,56.61548 14.3803451,56.453577 C14.4381,55.6489842 15.0241263,55.4591859 15.8427611,55.7463451 C16.6386122,56.0263935 17.1954963,56.0121724 17.6040189,54.7344508 C17.7693356,54.2170171 18.2774724,53.8691444 18.8015048,53.9139961 C19.3271265,53.8691444 19.8352633,54.2175643 20.0011098,54.7344508 C20.4101625,56.0121724 20.9670462,56.0263935 21.7628973,55.7463451 L21.7628973,55.7463451 L21.7628973,55.7463451 Z M24.3178866,56.9983591 L23.0441009,56.9983591 C23.0875494,56.7866818 23.0811911,56.5471089 23.0181377,56.2774529 C22.8989191,55.7775225 22.1703603,55.8267495 21.6404993,55.9525525 L21.6166556,55.9602104 C21.1042803,56.295503 20.7217205,56.2960498 20.7217205,56.2960498 C20.7217205,56.2960498 20.6374727,56.6253257 20.6242262,56.9983591 L20.3211456,56.9983591 L20.3211456,56.3988801 C20.3211456,56.2779998 20.236368,56.181733 20.1330451,56.181733 L20.0906561,56.181733 C19.9873335,56.181733 19.9030853,56.2796407 19.9004361,56.4070845 L19.9004361,55.7293891 C19.9004361,55.6090556 19.8156584,55.5116951 19.711276,55.5116951 L19.6699465,55.5116951 C19.5666236,55.5116951 19.481846,55.6101496 19.481846,55.7293891 L19.4776071,55.8694131 L19.4776071,54.9997313 C19.4776071,54.8788506 19.393889,54.782037 19.2900363,54.782037 L19.2465878,54.782037 C19.1432649,54.782037 19.059017,54.8804919 19.059017,54.9997313 L19.055838,55.0330964 L19.055838,54.9997313 C19.055838,54.8788506 18.97106,54.782037 18.8677371,54.782037 L18.8253485,54.782037 C18.7220256,54.782037 18.6377777,54.8804919 18.6377777,54.9997313 L18.6335388,55.0330964 L18.6335388,54.9997313 C18.6335388,54.8788506 18.5487608,54.782037 18.4454379,54.782037 L18.4030493,54.782037 C18.2986665,54.782037 18.2149488,54.8804919 18.2149488,54.9997313 L18.2117694,55.8694131 L18.2117694,55.7293891 C18.2117694,55.6090556 18.1269918,55.5116951 18.0236689,55.5116951 L17.9812799,55.5116951 C17.877957,55.5116951 17.7931793,55.6101496 17.7931793,55.7293891 L17.79,56.3994269 C17.79,56.2796407 17.7062823,56.182827 17.6024292,56.182827 L17.5600406,56.182827 C17.4556578,56.182827 17.37194,56.2801875 17.37194,56.3994269 L17.37194,56.9983591 L16.9846116,56.9983591 C16.9713651,56.6242316 16.8871172,56.295503 16.8871172,56.295503 C16.8871172,56.295503 16.5029681,56.295503 15.9921822,55.9591164 L15.9672786,55.9525525 C15.4374175,55.8267495 14.7088587,55.7775225 14.5917596,56.2774529 C14.5287062,56.5465621 14.5223479,56.7883227 14.5657964,56.9983591 L13.2909512,56.9983591 C13.0694692,56.6351713 12.9216382,56.2101755 12.8336812,55.7403284 C12.7610901,55.3596374 12.7759263,54.8591597 12.3822395,54.6578749 C12.3462092,54.6387308 12.3170667,54.6310733 12.3170667,54.6310733 C11.7321003,54.5101929 11.3050325,53.9741624 11.246218,53.3588215 C11.1397157,52.2446437 11.6112921,51.7534649 11.9758363,51.4466148 C12.2190426,51.241501 12.4733758,50.8783128 12.4601294,50.5287992 L12.4601294,49.9123643 L12.5152347,49.9271321 L12.5152347,49.0125987 C12.5152347,49.0125987 12.5056974,48.8610882 12.4601294,48.7806833 L12.4601294,48.1024407 C12.4601294,47.990312 12.4929806,47.8738074 12.5772285,47.7704299 L12.9030929,47.4373255 C13.3375787,47.2300236 14.7597255,46.770569 18.8174005,46.770569 C22.8019546,46.770569 24.2421166,47.2147085 24.7009762,47.4263858 L25.0363779,47.7698831 C25.1158571,47.8513816 25.1534775,47.9924997 25.1534775,48.1024407 L25.1423501,48.7976393 C25.1084392,48.8599941 25.0999614,49.0125987 25.0999614,49.0125987 L25.0999614,49.9271321 L25.1540072,49.9123643 L25.1550668,50.532081 C25.1444695,50.8815946 25.3929746,51.239313 25.6393598,51.4466148 C26.0039041,51.7540117 26.4754804,52.2446437 26.3689781,53.3588215 C26.3122831,53.9539247 25.9747615,54.3876717 25.4501993,54.585128 C25.3611828,54.6184931 25.2981295,54.6316205 25.2981295,54.6316205 C24.8604643,54.7497659 24.8488072,55.38261 24.7825748,55.7408752 C24.6882595,56.2112695 24.5404281,56.6357181 24.3178866,56.9983591 L24.3178866,56.9983591 L24.3178866,56.9983591 Z M18.6775171,9.08434319 C19.1183616,8.85078703 19.5311231,8.54557783 19.8977869,8.17418528 C20.159538,7.90890487 19.7737996,7.50250625 19.5115183,7.7683336 C18.8804538,8.41047625 18.0946703,8.82617338 17.2638481,8.99956283 C16.9925596,9.05644771 16.9883207,9.38627056 17.1562867,9.51316756 C17.1933768,9.54598578 17.2421238,9.56895851 17.3030581,9.57771003 C18.027378,9.68054037 18.8438934,9.70734188 19.6275579,9.53121758 C19.9857438,9.44971906 19.8686447,8.89509157 19.5093989,8.97494919 C19.2386398,9.03675677 18.9583433,9.07176285 18.6775171,9.08434319 L18.6775171,9.08434319 L18.6775171,9.08434319 Z M8.75110265,12.7687324 L8.72513948,12.79444 C8.40245443,12.975487 8.66526548,13.4743236 8.986891,13.2943704 C9.67518024,12.9093037 10.3094237,12.4558656 10.8869722,11.9439018 C11.1651491,11.6972184 10.807493,11.2662061 10.5287862,11.5123425 C10.4387098,11.5922002 10.3465139,11.6704169 10.2532585,11.7469926 C10.3565814,11.5905592 10.4572551,11.431391 10.5510403,11.2694879 C10.7423202,10.9467757 10.2728633,10.650318 10.0810536,10.9741242 C9.70750176,11.6107971 9.26241838,12.211917 8.75110265,12.7687324 L8.75110265,12.7687324 L8.75110265,12.7687324 Z M27.8260957,10.1099117 C27.6199797,9.796498 27.1637696,10.1142875 27.3698853,10.4282482 C28.1127505,11.5626638 28.2743581,12.6325369 28.1927595,13.8145388 C28.1657368,13.7341343 28.137124,13.6559176 28.1079818,13.5782478 C27.9744569,13.2254523 27.4610217,13.4316599 27.5945467,13.7844555 C27.9029257,14.5999876 28.0767199,15.4745925 27.9331278,15.9947609 C27.8329838,16.3590428 28.3628449,16.5154762 28.4629884,16.1517412 C28.5366394,15.8853669 28.5488259,15.5757819 28.5207433,15.2492409 C28.5557141,15.210953 28.5816776,15.1589908 28.5922745,15.0922605 C28.8847578,13.2566296 28.8937654,11.7448047 27.8260957,10.1099117 L27.8260957,10.1099117 L27.8260957,10.1099117 Z M21.3146349,5.37971605 C21.6791792,5.42347365 21.7422325,4.85845376 21.3766287,4.81524315 C20.7392059,4.73921431 20.0869473,4.71077189 19.4299197,4.72772795 C18.8433636,4.43345813 18.2255456,4.19169743 17.5796454,4.00682162 C17.2256984,3.90563219 17.0799865,4.454243 17.4328739,4.55543243 C17.698864,4.63146126 17.9584961,4.71733551 18.2144186,4.81305525 C17.8429862,4.85462495 17.4704939,4.91205682 17.0990615,4.98370985 C16.7366367,5.05262805 16.8383699,5.61163129 17.1986753,5.54216611 C17.9065697,5.40597061 18.6134039,5.32556605 19.3107011,5.30040542 C20.1240375,5.72211922 20.8722011,6.2477573 21.5419455,6.86091054 C21.8174728,7.11251669 22.1814873,6.68752109 21.9064897,6.43591495 C21.4539885,6.0207648 20.9659863,5.6428086 20.4451332,5.30806301 C20.7381464,5.32119029 21.0269206,5.34580393 21.3146349,5.37971605 L21.3146349,5.37971605 L21.3146349,5.37971605 Z M12.9931694,6.38832857 C13.3534747,6.31284672 13.2437935,5.75603134 12.8834881,5.83096624 C12.7520826,5.85886168 12.620677,5.88839807 12.4903314,5.92121625 C13.2374351,5.41964487 14.0507716,5.00011896 14.9160347,4.67029612 C15.260444,4.53847637 15.0691645,4.0051807 14.7258143,4.13700045 C13.2798241,4.68779916 11.9657689,5.48035853 10.8541209,6.48842403 C10.5770034,6.73893625 10.7984854,7.10868791 11.1386562,6.9653818 C11.736869,6.7143226 12.3568065,6.52124225 12.9931694,6.38832857 L12.9931694,6.38832857 L12.9931694,6.38832857 Z M18.9964934,12.2808353 C19.7345896,11.8416184 20.4006248,11.2574546 20.9522101,10.540377 C21.1811099,10.2433724 20.7492734,9.89057678 20.5219632,10.1870345 C19.7282312,11.2175258 18.6769874,11.9504654 17.519771,12.3431898 C17.4524788,12.3546762 17.4005524,12.3885883 17.3655817,12.4339868 C17.3147149,12.4968884 17.2940502,12.5822157 17.3057073,12.6631672 C17.3152447,12.7430248 17.3555142,12.8201476 17.4259858,12.8649991 C17.4736733,12.8978173 17.5324877,12.9147734 17.59978,12.9065688 C19.561855,12.9481385 22.0013348,12.5411929 23.4197722,10.5338134 C23.6370153,10.2275103 23.1919323,9.89276468 22.9757491,10.1985209 C22.016171,11.5539122 20.5092465,12.1118216 18.9964934,12.2808353 L18.9964934,12.2808353 L18.9964934,12.2808353 Z M9.11299771,9.196472 C9.06213129,9.24351143 9.03616812,9.30094325 9.03033954,9.35946901 C9.01603315,9.44370238 9.04570545,9.52574789 9.09763179,9.58646155 C9.15167758,9.64717521 9.22585834,9.68765098 9.30480738,9.68983884 C9.36150238,9.69147975 9.42084699,9.67342977 9.47224356,9.62967217 C9.71333035,9.48144331 9.96183502,9.35181146 10.2193473,9.23858868 C10.2574974,9.3818948 10.3931418,9.49675849 10.5732943,9.432763 C10.8021945,9.35235841 11.0348031,9.28453414 11.2727109,9.23202506 C11.6308969,9.15107348 11.5137977,8.59644603 11.1545519,8.67630365 C11.0581171,8.69818241 10.963272,8.72115518 10.8678971,8.7474097 C10.8440534,8.58988238 10.7025804,8.44821718 10.5054723,8.51768235 L10.4816286,8.52643387 C10.849882,8.17418528 11.249397,7.84983213 11.6791141,7.57798806 C11.9906725,7.37998496 11.7029578,6.89536964 11.3903399,7.09337274 C10.4969945,7.66167448 9.73187525,8.43399597 9.11299771,9.196472 L9.11299771,9.196472 L9.11299771,9.196472 Z M13.7296758,12.8513249 L13.82929,12.7681854 C14.373457,12.3688974 14.8943101,11.922023 15.3860213,11.431391 C15.4088051,11.4078713 15.4273504,11.3832576 15.4411267,11.358097 C16.0144362,11.2033045 16.5713199,11.0020196 17.1075393,10.7558832 C17.4418815,10.6027316 17.2182801,10.0825632 16.8839379,10.2368087 C15.9619801,10.6585225 14.9743194,10.9456817 13.9458593,11.0753136 C14.3151723,10.722518 14.6569324,10.3478437 14.9706103,9.95402532 C15.2032192,9.66030249 14.7782708,9.30039627 14.5451321,9.59302517 C14.0868022,10.1695315 13.5648892,10.7017332 12.9836316,11.1786909 C12.9226977,11.2290121 12.8903762,11.2891788 12.8803087,11.3493455 C12.8400396,11.5161713 12.9354144,11.721832 13.1574262,11.7119866 C13.5797254,11.6928426 13.9977857,11.649085 14.4084277,11.5812607 C14.033816,11.9116306 13.6448982,12.2168398 13.2432637,12.4947005 C10.9532049,12.2567686 10.8588895,13.2462371 11.0422214,14.5124724 C11.1519027,15.264009 11.3611977,16.1140003 11.2668824,16.863349 C11.2138965,17.2757643 11.0793116,17.664113 10.9606228,18.0595722 C10.8541209,18.407445 10.7545067,18.7957937 10.7391408,19.3405757 C10.7227153,19.9127062 10.7990152,20.6571322 11.0581171,21.7100493 C11.147134,22.0754252 10.7767611,22.2510025 10.5664062,21.9446994 C10.1896753,21.3960886 9.98885772,21.1280733 9.87599748,20.952496 C9.86646014,20.9426505 9.85957165,20.9311642 9.85109423,20.9191308 C9.22161943,19.9225517 8.39291671,19.6917304 7.9012058,19.8574622 C6.26499524,20.4120897 8.67109369,25.984619 10.6697291,25.3610733 C10.864188,25.3009067 11.0538782,25.4529643 11.0639457,25.6591719 C11.081431,26.0458797 11.2472775,28.4541881 12.4007848,30.0682963 C13.2782345,31.2962437 14.5541396,31.9334636 15.7828871,32.6822655 C15.8602465,32.7303989 15.9328376,32.7790791 16.0011898,32.8294002 C16.1119305,32.6822655 16.3604352,32.6467123 16.4711764,32.868782 C16.5930442,33.109449 16.6481499,33.2139202 16.7101437,33.2943247 C16.8373104,33.4589626 17.0736281,33.6443855 17.2951101,33.7433872 C17.3756488,33.7751114 17.4625463,33.8002718 17.5558017,33.8221508 C17.961675,33.9134946 18.3670187,33.945766 18.7437499,33.945766 C19.1215406,33.945766 19.5735121,33.9134946 19.9793855,33.8221508 C20.0726409,33.8013659 20.159538,33.7751114 20.2411366,33.7433872 C20.4615591,33.6438386 20.697347,33.4584158 20.8239839,33.2943247 C20.8870373,33.2139202 20.9432025,33.109449 21.0629509,32.868782 C21.173692,32.6467123 21.4243162,32.6822655 21.5339974,32.8294002 C21.6034091,32.7790791 21.6760002,32.7303989 21.7523,32.6822655 C22.9794579,31.9334636 24.2580123,31.2962437 25.1344024,30.0682963 C26.2894989,28.4547349 26.4526962,26.0458797 26.472301,25.6591719 C26.4828983,25.4529643 26.6709988,25.3009067 26.8654581,25.3610733 C28.8635633,25.984619 31.2696618,20.4115428 29.6339814,19.8574622 C29.2026746,19.7108743 28.5122655,19.8716835 27.9230603,20.5860262 L27.7513852,20.8168475 C27.7286014,20.8502126 27.7068771,20.8841247 27.6840929,20.9196778 C27.6644881,20.9508551 27.6427639,20.9754687 27.6189201,20.9951596 L27.5224854,21.1253385 C27.371475,21.3320931 27.1945015,21.6121417 26.9512952,21.914616 C26.9512952,21.914616 26.8394949,22.1262934 26.586751,22.0617509 C26.3795754,21.9572797 26.393352,21.7800614 26.4585248,21.5087644 C26.70491,20.5028867 26.7441197,19.990376 26.7377613,19.4335606 C26.7345823,19.3608136 26.7292835,19.2886136 26.7223954,19.2169605 C26.7181565,19.1704681 26.7128581,19.1223347 26.7070295,19.0752953 C26.6503345,18.6196694 26.526877,18.1383359 26.3424852,17.4961932 C26.1066972,16.663705 26.1480263,15.9652245 26.3578511,15.1119514 C26.9756691,12.6057354 25.7368541,12.3388141 24.3327228,12.4804793 C23.0806613,13.793207 21.4359729,14.573733 20.2326588,14.9396559 C19.8908987,15.0430332 19.7070371,14.7044589 19.9698478,14.4572285 C20.2421966,14.2001526 20.5081866,13.9135404 20.7635798,13.5984857 C20.7831846,13.5716842 20.7906025,13.5372251 20.7810651,13.502219 C20.7667588,13.4425993 20.7084741,13.4032175 20.6507191,13.4174387 C20.6342937,13.4223614 20.6178679,13.430019 20.6009123,13.4415054 L20.5781285,13.4584614 C20.1568888,13.757654 19.7213431,14.0284041 19.2730807,14.2674299 C19.2730807,14.2674299 18.8560803,14.4802012 18.1503057,14.7421998 C17.4508891,15.0025574 16.4611089,15.3132363 15.3065422,15.5178031 C14.9462368,15.5807046 14.8058233,15.1885272 15.1184412,14.9943529 C15.9243598,14.4938755 16.4150112,14.0940405 16.4690569,14.0486419 C16.6243062,13.9129934 16.7763761,13.7724221 16.9242074,13.6269282 C16.9634171,13.5831706 16.9750742,13.5470706 16.9750742,13.5104236 C16.9750742,13.4311129 16.9151999,13.3638356 16.8394298,13.3638356 C16.8166456,13.3638356 16.7970408,13.3676644 16.7731971,13.375869 C16.7625998,13.3802447 16.7525324,13.3851675 16.7408756,13.3911842 C16.4812435,13.5142524 16.2173729,13.6258342 15.9503229,13.7275706 C15.9503229,13.7275706 15.5137177,13.8856449 14.784099,14.0573935 C14.060839,14.2275011 13.0445659,14.411283 11.8751626,14.4681678 C11.554597,14.48403 11.4714087,14.1241238 11.7654814,13.9890222 C12.6296846,13.5902812 13.165904,13.2538947 13.2215394,13.2183416 C13.3937443,13.1018371 13.5643595,12.9793158 13.7296758,12.8513249 L13.7296758,12.8513249 L13.7296758,12.8513249 Z M14.0401743,36.1341925 C14.1127654,36.6756925 14.6299097,37.1608551 15.3886706,37.5322477 L17.1409204,38.430372 L17.0768075,42.4790431 C16.955469,42.5583539 16.8675124,42.6950962 16.8638033,42.8914584 L16.8553255,43.3164542 C16.8510866,43.5171922 16.9348047,43.6604983 17.0572026,43.7556711 C17.0508443,44.1336272 17.6013697,44.1440197 17.607728,43.7562179 C17.7306557,43.6774543 17.8228516,43.539618 17.8260306,43.33888 L17.8355683,42.9138842 C17.8398072,42.7093176 17.7529098,42.5654647 17.6273328,42.4834189 L17.6872072,38.7104208 L17.9706826,38.8564614 C18.2181278,38.9882815 18.5482311,39.0555585 18.8815137,39.0566526 C19.214796,39.0555585 19.5448994,38.9882815 19.7923445,38.8564614 L19.9269294,38.7880903 L19.966139,43.8765514 C19.8458605,43.9569559 19.7610829,44.0969803 19.7610829,44.2960774 L19.7632023,44.7210728 C19.7642619,44.9229049 19.8522189,45.0629289 19.9751466,45.1537258 C19.9783256,45.5322291 20.5288513,45.5278533 20.525672,45.1400516 C20.6475402,45.0601943 20.7354971,44.9190759 20.734967,44.7177911 L20.7328476,44.2933425 C20.731788,44.0893227 20.6417116,43.9482043 20.5156049,43.8705347 L20.4753353,38.5085887 L22.2800416,37.5853037 C23.0965574,37.2089881 23.6597994,36.704135 23.7350397,36.1380211 L24.187541,31.7994559 C23.8685647,32.0505154 23.5177967,32.2906352 23.1341773,32.5247383 C22.7256547,32.7725156 21.6760002,33.310187 21.3819272,33.6635295 C20.7519226,34.4221766 19.6381552,34.5151617 18.7432201,34.5151617 C17.8488148,34.5173494 16.7811451,34.4221766 16.1516703,33.6635295 C15.8575973,33.310187 14.807413,32.7725156 14.3994202,32.5247383 C14.1191237,32.3540837 13.8563127,32.1790533 13.610987,32.0001939 L14.0401743,36.1341925 L14.0401743,36.1341925 L14.0401743,36.1341925 Z M19.6731259,41.6717158 C19.1607503,41.6514777 18.8009746,41.6536658 18.8009746,41.6536658 C18.5651867,41.6525717 18.2578672,41.6569475 17.9161071,41.6695277 L17.9086892,42.0573294 C18.4274228,42.0370917 18.7967357,42.0392794 18.8020346,42.0392794 C18.807333,42.0392794 19.1671086,42.0370917 19.6752454,42.0562354 L19.6731259,41.6717158 L19.6731259,41.6717158 L19.6731259,41.6717158 Z M27.8880895,19.8240971 C28.5122655,19.2886136 29.2259882,19.1212408 29.8035366,19.3176029 C32.1857914,20.1243836 29.452769,26.2969389 27.0011021,25.9714918 C26.8055837,28.308147 26.1792879,29.9370235 24.8021797,31.2639726 L24.7709177,31.5144849 L24.5340698,33.8363719 C25.4003925,33.8391068 25.7553994,34.1382993 25.9249547,34.5064101 L26.473361,35.6911467 C26.6307297,35.7660817 26.796046,35.8306243 26.9740794,35.889697 C27.4006175,36.016594 27.8785518,36.1259878 28.4052339,36.2599955 L28.5509454,36.2966424 L28.8895265,36.3765 C33.006546,37.359405 38.6320794,37.5497505 39.6070234,42.9434207 C39.8369832,44.209109 40.590975,50.767825 41.7614378,56.9978123 L24.7470739,56.9978123 C24.9325253,56.6422816 25.0607518,56.2424466 25.1412905,55.8130753 C25.1762613,55.6216358 25.1932169,55.0921691 25.3897952,55.0013722 C26.129481,54.8323585 26.6588123,54.1727127 26.7329926,53.3949215 C26.9242725,51.3886358 25.6049188,51.3481599 25.5222606,50.5736509 C25.5201412,50.5528659 25.5201412,49.9555746 25.5201412,49.9555746 C25.8417667,49.7428033 25.8147436,49.1498882 25.8147436,48.9245367 C25.8147436,48.6395652 25.6563154,48.5143091 25.5196111,48.462894 L25.5196111,48.1040816 C25.5196111,47.895686 25.4470204,47.6500968 25.2885917,47.4947573 C25.2885917,47.4947573 25.0889778,47.4132227 25.047505,47.2475268 C24.9684346,46.9316157 25.047505,46.5315432 25.047505,46.5315432 L25.0151834,46.3565128 C24.9553094,43.3700571 23.4875946,42.5342872 22.841694,42.1946189 C22.3626998,41.9424658 21.5313482,41.812287 20.7720576,41.7428218 L20.7752366,42.1284355 C21.5101537,42.1979007 22.2625562,42.3204219 22.6731983,42.5364749 C23.2433288,42.8367615 24.5854663,43.5664192 24.6426915,46.3641704 C24.1356143,46.2607933 22.6631312,45.8450959 18.7999151,45.8450959 C14.9213331,45.8450959 13.4536183,46.2668099 12.9560792,46.4839567 C13.0148936,43.5664192 14.3586208,42.8367615 14.928751,42.5364749 C15.3367442,42.3209691 16.079609,42.2000887 16.8060484,42.1306236 L16.8124067,41.7428218 C16.0091378,41.8193974 15.2106371,41.9566868 14.7591958,42.1946189 C14.1154146,42.5342872 12.6503493,43.3684162 12.5867658,46.3461204 L12.5650416,46.6031961 L12.5650416,47.2360403 L12.3107083,47.4974922 C12.1501606,47.658848 12.0839279,47.9082666 12.0839279,48.1046288 L12.0839279,48.4634408 C11.9451045,48.514856 11.7877358,48.6406593 11.7877358,48.9250835 C11.7877358,49.1148822 11.7898553,49.3096035 11.8062807,49.4687716 C11.8311843,49.7045156 11.8613864,49.8489157 12.0823382,49.9577627 L12.0823382,50.5391917 C12.0897565,50.7377416 11.9149024,50.9986463 11.7347495,51.1501569 C11.3124503,51.5051403 10.7476186,52.110636 10.8705463,53.3971092 C10.9441969,54.1749004 11.4740579,54.8345462 12.2116243,55.0035599 C12.4092626,55.0943569 12.4256884,55.6254647 12.4622488,55.8158102 C12.5417276,56.2446347 12.6715438,56.6444697 12.8543456,57 L-4,57 C-2.82953756,50.7683722 -2.07395567,44.2112967 -1.84558559,42.9456085 C-0.870641564,37.5519386 4.75383185,37.3615931 8.87191092,36.3786881 L9.01656292,36.3447758 L9.1654542,36.3075821 L9.31116573,36.271482 C9.84314619,36.1352862 10.2786919,36.0351908 10.670789,35.9241561 C10.8912111,35.854691 11.0973267,35.777021 11.2875471,35.6873181 L11.8348935,34.5025811 C12.0065682,34.1328294 12.3636946,33.8319961 13.2369054,33.8319961 L13.0021769,31.5112027 C11.4311392,30.1388555 10.7359618,28.4541881 10.5277263,25.967663 C8.07711978,26.29311 5.344097,20.1205548 7.72635173,19.3137742 C8.29330294,19.1206938 8.99218943,19.2782211 9.60576854,19.7907319 C9.5851038,19.6698516 9.55914063,19.5331091 9.52734888,19.3750348 C9.48072136,19.1502302 9.44045181,18.9697301 9.3980628,18.7968876 C9.26453783,18.9314422 9.22426865,18.9702771 9.18134988,19.008018 C9.05100389,19.1250696 8.96092783,19.0714665 8.99589857,18.8964362 C9.07431784,18.4894906 9.09710202,18.0743404 9.06319082,17.6515327 C8.84488822,16.991887 8.59638354,16.3825625 8.34310982,15.7300274 C8.28323545,15.9794457 8.03843991,15.9581139 8.01830495,15.7354971 C7.95525159,14.9691923 7.66753728,13.7674994 7.59176722,13.4376766 C7.3215379,12.0970534 7.44287632,10.8980953 8.00876761,9.62912518 L7.85775726,9.61763882 C7.68396273,9.60177669 7.66117893,9.49839937 7.80689046,9.40213268 C7.98704334,9.28289323 8.15977796,9.14833864 8.32244547,9.00065676 C8.40616318,8.84805218 8.49623962,8.69380665 8.59373395,8.53846722 C9.09233336,7.81263815 9.5707978,7.14971063 10.0593293,6.55843619 L9.7806226,6.64431048 C9.46270584,6.74385899 9.14955813,6.85762871 8.842239,6.98616663 C8.67162346,7.05836669 8.58684583,6.91615451 8.72513948,6.79035144 C9.65557543,5.94747081 10.7349019,5.25391297 11.9149024,4.72991581 C12.2365279,4.46025967 12.7054547,4.21685806 13.2851226,4.01229131 C13.1939866,3.99642918 13.1017907,3.98220797 13.0095948,3.96908069 C12.796591,3.93845037 12.7881132,3.68301545 13.0000575,3.63925785 C13.9914273,3.43523808 15.0182977,3.3679608 16.0531161,3.43359716 C16.6243062,3.37561835 17.2267579,3.34498803 17.8525236,3.34498803 C18.6960624,3.34498803 19.5019806,3.40187291 20.2421966,3.50579718 L20.468977,3.51892447 C20.499179,3.4636805 20.5632923,3.42484564 20.6565477,3.43687899 C21.2754253,3.51290779 21.8900639,3.64089876 22.498874,3.82139882 C24.8472179,4.41322024 25.7930194,5.72704193 25.965754,7.37396829 C25.7967285,8.40828839 24.6379225,9.39502208 24.1546893,10.3828497 C23.9883131,10.7208771 24.4794942,10.977406 24.6453407,10.6393786 C24.7873435,10.3522194 24.9669662,10.086392 25.1619549,9.82986312 C25.2541508,10.0333359 25.5922021,10.0754526 25.6785694,9.79376311 C25.7373839,9.60013578 25.931313,8.92900372 26.072786,8.60246271 C26.2455206,8.32186712 26.3864635,8.0226746 26.4648832,7.69175782 C27.5712327,7.71527754 28.3029705,7.84272152 28.8598546,8.51166568 C30.072706,10.4638012 30.2147088,11.9351503 29.8628812,13.4797932 C29.737834,14.1410798 29.6217944,14.8789423 29.5905325,15.5117864 C29.5799352,15.7349501 29.3340797,15.7650335 29.2736756,15.5500743 C29.1247847,15.6950214 29.006626,15.9854624 28.8836983,16.2873897 C28.6177079,17.0843249 28.4677575,17.8019494 28.377681,18.5660663 C28.3559567,18.7547709 28.1726249,18.7919649 28.0910262,18.6639739 C28.0581749,18.8012634 28.023734,18.9380059 28.0009498,19.0747483 L27.9431949,19.3794106 C27.9050451,19.5686621 27.8880895,19.7125152 27.8880895,19.8240971 L27.8880895,19.8240971 Z M22.2811011,20.1555608 C21.7597183,20.2835518 21.3352996,20.5904019 21.0952724,20.9771096 C20.8737908,21.333187 20.3555866,20.9896899 20.5765388,20.6341595 C21.0226817,19.917082 21.8731083,19.4548924 22.8252685,19.4548924 C23.7774284,19.4548924 24.6209672,19.9181759 25.0660502,20.6341595 C25.2875322,20.9896899 24.7687982,21.333187 24.5473162,20.9771096 C24.2998715,20.5794625 23.8643258,20.2676897 23.325987,20.1451684 C23.5061399,20.2988669 23.6211196,20.5318761 23.6211196,20.7922338 C23.6211196,21.2549703 23.2565753,21.6301917 22.8088427,21.6301917 C22.3611101,21.6301917 21.9976257,21.2544234 21.9976257,20.7922338 C21.9976257,20.5367989 22.107307,20.3092594 22.2811011,20.1555608 L22.2811011,20.1555608 L22.2811011,20.1555608 Z M22.8443436,17.2856098 C24.3925971,17.2533386 25.6912861,18.0103449 25.7130104,18.4692527 C25.7453319,19.2344635 25.6404193,19.0020014 25.0384974,18.7668043 C24.1938994,18.4375284 23.4664001,18.3407147 22.8517615,18.3757208 C22.2641459,18.3828314 21.5769162,18.5141042 20.785304,18.8554134 C20.182852,19.1146771 20.0784695,19.3520621 20.1118506,18.5852103 C20.1303958,18.136148 21.3702704,17.3156932 22.8443436,17.2856098 L22.8443436,17.2856098 L22.8443436,17.2856098 Z M15.2583246,20.1555608 C15.4310592,20.3092594 15.5407404,20.5367989 15.5407404,20.7922338 C15.5407404,21.2549703 15.1772561,21.6301917 14.7295235,21.6301917 C14.2802016,21.6301917 13.9172466,21.2544234 13.9172466,20.7922338 C13.9172466,20.5318761 14.0322267,20.2994139 14.2123792,20.1451684 C13.6740407,20.2676897 13.238495,20.5794625 12.9910499,20.9771096 C12.7695679,21.333187 12.2513641,20.9896899 12.4723159,20.6341595 C12.9173993,19.9176289 13.7619973,19.4548924 14.7130976,19.4548924 C15.6652579,19.4548924 16.5146249,19.9176289 16.9618274,20.6341595 C17.1833094,20.9896899 16.6640456,21.333187 16.4430938,20.9771096 C16.2030665,20.5904019 15.7797078,20.2835518 15.2583246,20.1555608 L15.2583246,20.1555608 L15.2583246,20.1555608 Z M14.6945527,17.2856098 C16.1680958,17.3162401 17.4090302,18.1366949 17.4275751,18.5852103 C17.4614863,19.3520621 17.356044,19.1146771 16.754122,18.8554134 C15.9635694,18.5141042 15.2763401,18.3828314 14.6876646,18.3757208 C14.0719661,18.3407147 13.3465866,18.4375284 12.4998688,18.7668043 C11.8984766,19.0020014 11.7930342,19.2344635 11.8269454,18.4692527 C11.8476098,18.0103449 13.1462992,17.2533386 14.6945527,17.2856098 L14.6945527,17.2856098 L14.6945527,17.2856098 Z M18.2811811,20.3032427 C18.4539157,20.2884745 18.6287698,20.2813639 18.8057437,20.2813639 C18.9837767,20.2813639 19.1586308,20.2884745 19.3334849,20.3032427 C19.6985593,20.3333261 19.6540509,20.8999869 19.2889768,20.8693566 C19.1294887,20.8567763 18.9684108,20.8496657 18.8057437,20.8496657 C18.6430762,20.8496657 18.4841178,20.8567763 18.3267491,20.8693566 C17.9606155,20.8999869 17.9171666,20.333873 18.2811811,20.3032427 L18.2811811,20.3032427 L18.2811811,20.3032427 Z M16.8129365,25.2555081 C16.8129365,25.2555081 16.8457882,25.2166733 16.9093713,25.1690869 C17.2341762,24.9240444 17.6294523,24.9716308 17.9526675,25.221049 C18.0957298,25.331537 18.2504493,25.4081128 18.7442796,25.4081128 C19.2412894,25.4081128 19.4034267,25.33099 19.546489,25.221049 C19.8818912,24.9612384 20.3953264,24.913105 20.6856899,25.2555081 C20.933135,25.5350098 20.5272616,25.9195296 20.2798165,25.640028 C20.1362244,25.531728 19.9974006,25.5815022 19.8750027,25.6750341 L19.836853,25.7045704 C19.824666,25.7182447 19.8087703,25.7319189 19.7934044,25.7444993 C19.4685995,25.9999342 19.2105571,26.2630267 18.7575261,26.2619328 C18.3034355,26.2630267 18.0411542,25.9999342 17.7174093,25.7444993 C17.6792592,25.7176977 17.650117,25.6969129 17.6209745,25.6750341 C17.4779122,25.5650931 17.3571039,25.5350098 17.2172206,25.640028 C16.9703052,25.9195296 16.5644318,25.5350098 16.8129365,25.2555081 L16.8129365,25.2555081 L16.8129365,25.2555081 Z M20.2400771,23.3077483 C20.3868486,23.4887954 20.5516351,23.6085818 20.7026455,23.6692954 C21.044406,23.8087728 20.8425288,24.3376927 20.5007687,24.1976684 C20.2522637,24.0964789 20.0164757,23.9165259 19.8188374,23.6731243 C19.5830495,23.3832302 20.0042888,23.0178543 20.2400771,23.3077483 L20.2400771,23.3077483 L20.2400771,23.3077483 Z M17.4450605,23.6731243 C17.2474226,23.9165259 17.0116343,24.0964789 16.7631296,24.1976684 C16.4213695,24.3376927 16.2200221,23.8087728 16.5612528,23.6692954 C16.7122632,23.6085818 16.8770498,23.4887954 17.0238212,23.3077483 C17.2606691,23.0178543 17.6808489,23.3832302 17.4450605,23.6731243 L17.4450605,23.6731243 L17.4450605,23.6731243 Z M8.2074654,21.1603445 C8.9699354,20.9656233 9.71650933,21.8396812 10.0980092,22.8389952 C10.1292712,22.9161179 10.4593745,23.7092243 9.94170043,23.750247 C9.706972,23.7699379 9.43780259,23.4882484 9.34242771,23.1474862 C9.28255334,22.9286982 9.3074566,22.732883 9.39753304,22.6202072 C9.04252647,21.9468873 8.58631606,21.6487887 8.33993084,21.7116902 C7.98545366,21.8019402 7.85298859,21.2505946 8.2074654,21.1603445 L8.2074654,21.1603445 L8.2074654,21.1603445 Z M29.2302271,21.1614385 C29.5873535,21.2522355 29.4538285,21.8041281 29.097762,21.7133311 C28.8513768,21.6509765 28.3962259,21.9485282 28.0412193,22.6223951 C28.1302359,22.7350709 28.157259,22.9297921 28.0963247,23.1491271 C28.0009498,23.4893424 27.7317804,23.7715788 27.4970519,23.7529819 C26.9793779,23.7119591 27.3089514,22.9188528 27.3407432,22.84173 C27.7227728,21.841869 28.468817,20.9672642 29.2302271,21.1614385 L29.2302271,21.1614385 L29.2302271,21.1614385 Z M22.7828795,26.712089 C22.5047025,26.7924937 22.3876034,26.3620283 22.6647205,26.2816237 C23.2608142,26.1087812 23.859027,26.7263102 23.9199609,27.3022694 C23.9512229,27.5992742 23.5193864,27.6479544 23.4886541,27.3509497 C23.4568628,27.0446468 23.1050352,26.6191041 22.7828795,26.712089 L22.7828795,26.712089 L22.7828795,26.712089 Z M14.6754777,26.712089 C14.3527923,26.6191041 14.0009647,27.0446468 13.9686432,27.3509497 C13.9363216,27.6479544 13.5060748,27.5992742 13.5373364,27.3022694 C13.5982703,26.7263102 14.1964835,26.1082342 14.7925768,26.2816237 C15.0712839,26.3620283 14.9541844,26.7924937 14.6754777,26.712089 L14.6754777,26.712089 L14.6754777,26.712089 Z M21.2298573,28.2277426 C20.9257171,28.2605609 20.590315,28.2780637 20.1929194,28.2906442 C20.1462915,28.2928319 19.572982,28.3179927 18.7532872,28.3234621 C17.8965022,28.3179927 17.3115359,28.2906442 17.3115359,28.2906442 C16.910961,28.2780637 16.5744993,28.2594668 16.2692992,28.2271957 C16.4441533,28.4257456 16.5994026,28.6084336 16.7641895,28.7714306 C16.98991,29.0197552 17.5701077,29.2527642 18.7458693,29.2527642 C19.9836244,29.2527642 20.5028882,28.9710746 20.7752366,28.7325957 C20.9225378,28.5805383 21.0682497,28.4104305 21.2298573,28.2277426 L21.2298573,28.2277426 L21.2298573,28.2277426 Z M22.1687706,28.0532594 C22.1592333,28.0631046 22.1512853,28.0724031 22.140688,28.0822487 C20.9432025,29.2243217 20.7609302,30.0874404 18.7495785,30.0885341 C16.7398157,30.0874404 16.5607227,29.2237749 15.3632372,28.0822487 C15.3526399,28.0718562 15.3436323,28.0625578 15.3351545,28.0521653 C15.1375163,27.9958272 14.9398784,27.926362 14.7295235,27.8388472 C14.3888229,27.6977287 14.594939,27.169903 14.9356395,27.3115679 C15.6641983,27.6140425 16.2232015,27.6867894 17.3332602,27.7228895 C17.3332602,27.7228895 17.9086892,27.7491439 18.7511678,27.7551605 C19.5957662,27.7491439 20.1733146,27.7228895 20.1733146,27.7228895 C21.2839031,27.6867894 21.843436,27.6140425 22.5719948,27.3115679 C22.9111061,27.1704498 23.1161622,27.6982755 22.7770509,27.8388472 C22.5661666,27.926362 22.3664089,27.9969212 22.1687706,28.0532594 L22.1687706,28.0532594 Z M16.2062459,56.9983591 L15.3536998,56.9983591 L15.3526399,56.9693698 C15.3526399,56.725421 15.5439198,56.5279652 15.7802376,56.5279652 C16.0170854,56.5279652 16.2078356,56.7248742 16.2078356,56.9693698 L16.2062459,56.9983591 L16.2062459,56.9983591 L16.2062459,56.9983591 Z M22.2508991,56.9983591 L21.3972931,56.9983591 L21.3962335,56.9693698 C21.3962335,56.725421 21.5875134,56.5279652 21.8248911,56.5279652 C22.0622688,56.5279652 22.2535487,56.7248742 22.2535487,56.9693698 L22.2508991,56.9983591 L22.2508991,56.9983591 L22.2508991,56.9983591 Z" fill="#6D7B8A" mask="url(#mask-5)"></path>
            </g>
            <g id="Shape-Copy" transform="translate(140.000000, 293.000000)">
                <mask id="mask-7" fill="white">
                    <use xlink:href="#path-6"></use>
                </mask>
                <use id="Mask" fill="#FFFFFF" xlink:href="#path-6"></use>
                <path d="M9.99243663,20.6091472 C9.9793392,20.6156772 9.96296742,20.6215541 9.94921514,20.6261251 C9.87914393,20.647021 9.79924966,20.641144 9.73441745,20.6071882 C9.70494824,20.5902103 9.67809854,20.5667025 9.65386831,20.5366647 L9.62963808,20.5079329 C9.44299985,20.2813433 9.24326418,20.0985045 9.04287364,19.9639874 C8.72788071,19.7530698 8.31138273,19.6041867 7.93614167,19.7576407 C7.30812034,20.013615 7.15815489,21.3698873 7.92238936,22.8254149 C7.92959293,22.8378218 7.93614167,22.8515347 7.93810626,22.8652476 C7.94792934,22.8770016 7.95513292,22.8900615 7.96364625,22.9044274 C8.47313589,23.8630252 8.88308514,24.4507214 9.26552978,24.7582824 C9.6021335,25.0273167 9.90992289,25.0789034 10.2910578,24.9554872 L10.3126685,24.9489572 C10.4580499,24.821623 10.7402993,24.8627618 10.7704234,25.1193891 C11.4010642,30.5457841 14.3237535,31.9856398 16.6249702,32.4048631 C16.5758549,32.0731412 17.0807604,31.9660499 17.1599998,32.3095257 C17.2497171,32.6960992 17.5489932,32.9612155 18.7474071,32.9612155 C19.9451662,32.9612155 20.245752,32.6960992 20.3341596,32.3095257 C20.4127441,31.9673559 20.9137204,32.0711822 20.8691892,32.3989861 C23.1690962,31.9745389 26.0695199,30.5248882 26.6968864,25.1193891 C26.7276653,24.8627618 27.0105695,24.821623 27.155951,24.9489572 L27.1782165,24.9554872 C27.480112,25.0534365 27.729618,25.0371116 27.97323,24.9110834 C28.3124531,24.7341216 28.678526,24.3266522 29.1277675,23.5789721 C29.4656811,23.0160897 29.7846033,22.4336174 29.9470111,21.7936816 C30.134959,21.0531844 30.2161631,19.4468147 28.9686339,19.7223789 C28.5960123,19.8046564 28.186718,20.0821796 27.8173706,20.5373177 L27.79576,20.5640905 C27.7283081,20.6293901 27.6294226,20.6515919 27.5390505,20.6326551 C27.5141654,20.6280841 27.489935,20.6195952 27.4670145,20.6084942 C27.5239884,20.2898323 27.6058472,20.0018611 27.7466444,19.8980348 C27.9562032,19.712584 28.1186114,19.5075433 28.1186114,19.2267552 L28.1186114,18.1891448 C28.1186114,17.9847571 28.0079381,17.7999593 27.851424,17.694174 L27.8540432,17.6660952 C28.0662216,15.528187 28.2050543,13.4771273 28.0498499,11.6265372 C27.9509644,10.4328609 27.7302727,9.33517498 27.3334209,8.3582933 C26.9758614,7.47413701 26.4742301,6.68793007 25.7885802,6.0186094 C26.0059974,6.54165901 26.1428655,7.09931742 26.175609,7.59494124 C26.2135915,8.1702305 26.129768,8.7605387 25.8488284,9.28685331 C25.6772522,9.60616825 25.1985415,9.3514999 25.3694628,9.03218496 C25.5908092,8.61687963 25.6661193,8.13235677 25.6333758,7.63020299 C25.596703,7.08364552 25.4126843,6.43130273 25.1212667,5.87103235 C24.8540793,5.72737328 24.5659361,5.60265108 24.2581467,5.49360079 C24.5600422,5.97616467 24.7938312,6.52598711 24.880929,7.09474645 C24.9385577,7.45193515 24.4009086,7.53421263 24.3458994,7.17702393 C24.2352262,6.45676959 23.8370646,5.7397802 23.3616283,5.18995775 L23.3256104,5.14686003 C22.4212335,4.12753361 20.926163,3.56987521 19.3721541,3.56595723 C18.9628597,3.56595723 18.5673176,3.60317799 18.1881473,3.67304854 C18.4631931,3.7716509 18.7303805,3.88984314 18.9870899,4.02501327 C19.032276,3.83237951 19.3047024,3.70700432 19.469075,3.91400398 C19.9287944,4.48929327 20.2326546,5.13314712 20.4016113,5.82271066 C20.6039664,6.64287336 20.6157541,7.52049972 20.4801958,8.42359287 C20.4271513,8.78078157 19.8901571,8.70046308 19.9425467,8.3426214 C20.0702466,7.49568585 20.0564943,6.69054205 19.8764048,5.95526881 C19.7932361,5.62093497 19.677324,5.30227302 19.5240842,4.99928298 C19.4985442,4.98557007 19.4703847,4.96859218 19.443535,4.94834931 C18.5568397,4.29731251 17.4671343,3.89376111 16.3446854,3.87939521 C15.6911241,3.87025327 15.0486957,4.0047704 14.437701,4.22613597 C14.3106561,4.27249867 14.1855757,4.32147335 14.0657343,4.37501901 C14.5287281,4.37240702 15.0107132,4.39852685 15.4710875,4.45794947 C15.2523606,4.28164061 15.448167,3.87808921 15.7546466,4.00085242 C16.4985801,4.30057749 17.1783362,4.75310357 17.7415253,5.35320669 C18.2117226,5.85470746 18.5463617,6.40910087 18.7696727,7.01312198 C19.0892498,7.87507641 19.1855159,8.82975627 19.1075862,9.82622783 C19.078117,10.1866815 18.5371936,10.1435838 18.5660079,9.7837831 C18.6393534,8.84673414 18.5476715,7.97433177 18.2595282,7.20183777 C18.0584828,6.66246324 17.763136,6.16945143 17.3564611,5.73586222 C17.2935935,5.66860366 17.2313808,5.60461007 17.1645839,5.54192247 C17.1514865,5.53539252 17.1377342,5.52755657 17.1246368,5.51841463 C16.4226151,5.02997378 14.8378272,4.86541884 13.5844041,4.92941243 C14.6060029,5.27223522 15.645938,5.96049278 16.0532678,7.01508097 C16.1822774,7.35267979 15.676717,7.54661953 15.5470525,7.20902071 C15.1338289,6.13941362 13.8470074,5.4753169 12.7854615,5.2755002 C11.9845542,5.40740534 11.2740192,5.64248383 10.6944583,5.95330982 C11.8038098,5.81291573 13.1305785,5.99706054 13.9753621,6.84073108 C14.2327264,7.09670544 13.8483171,7.48001398 13.5916077,7.22403963 C13.0362771,6.66964619 12.1842899,6.45415758 11.3650463,6.45219858 C11.107682,6.68140011 10.7055912,7.19661378 10.5975374,7.26779033 C9.93218849,7.70007353 9.38602606,8.20614527 8.98720961,8.7278889 C9.66238164,8.32760248 10.4993068,8.03440739 11.3192053,8.03767235 C11.6800392,8.03963134 11.6787295,8.58161784 11.3146212,8.57965885 C10.807751,8.57704688 10.2858188,8.71091103 9.81038249,8.9159517 C9.18039657,10.8475132 9.07430748,13.6802089 9.4888408,17.8149783 C9.40567219,17.9174986 9.3532825,18.0487508 9.3532825,18.1897979 L9.3532825,19.2274081 C9.3532825,19.5081963 9.51438078,19.713237 9.72459437,19.8986878 C9.92498491,20.0456119 9.96820639,20.3459899 9.99243663,20.6091472 L9.99243663,20.6091472 L9.99243663,20.6091472 Z M25.8645453,39.2685019 C25.8979437,39.2952746 25.9385457,39.3089874 25.9811123,39.3089874 C26.0819624,39.3089874 26.1625116,39.2273631 26.1625116,39.1248426 C26.1625116,39.1170068 26.1625116,39.1045997 26.1598921,39.0928459 L24.7565035,33.4666342 C24.7191759,33.3360351 24.677919,33.2211078 24.6281488,33.1166285 C24.5665909,34.5205694 23.6543556,35.9689141 22.332171,36.9941176 C23.3806195,37.3153914 24.8377075,38.4398502 25.8645453,39.2685019 L25.8645453,39.2685019 L25.8645453,39.2685019 Z M24.1487832,31.5788234 C22.9916261,32.4610207 21.6989108,32.8345343 20.5777716,32.9964773 C20.23069,33.3673789 19.6170758,33.502549 18.7493717,33.502549 C17.8862518,33.502549 17.270673,33.3680319 16.9242463,32.9990892 L16.8967417,32.9958243 C15.7854256,32.8358403 14.5044979,32.4662447 13.356509,31.6010253 C13.4259253,31.9014033 13.4959965,32.2011284 13.442952,32.5446042 C13.2078533,34.0667374 14.3303022,35.9094914 16.1416754,37.0045654 C16.8810248,37.2801295 17.4645148,37.6170753 17.9078625,38.0278099 C18.2955461,38.3863043 18.5699371,38.793774 18.748062,39.247606 C18.9281515,38.793774 19.2031974,38.3863043 19.5902261,38.0278099 C20.0361933,37.6151164 20.616409,37.2794765 21.357723,37.0045654 C23.1677864,35.9094914 24.2908902,34.0667374 24.0544818,32.5446042 C24.002747,32.1932924 24.0760925,31.8870374 24.1487832,31.5788234 L24.1487832,31.5788234 L24.1487832,31.5788234 Z M15.1691919,36.9921583 C13.8470074,35.9669551 12.934772,34.5186104 12.8719044,33.1146695 C12.8221343,33.2191488 12.7795676,33.3340761 12.7428949,33.4646752 L11.3447453,39.075868 C11.3427806,39.088928 11.3388514,39.1117829 11.3388514,39.1228836 C11.3388514,39.2254041 11.4213652,39.3070284 11.5215604,39.3070284 C11.5621624,39.3070284 11.5935962,39.2933157 11.6309239,39.2717668 C12.6584165,38.4437681 14.118124,37.3153914 15.1691919,36.9921583 L15.1691919,36.9921583 L15.1691919,36.9921583 Z M25.9293775,35.9205924 L28.6202424,36.9954236 L36.62866,39.0771739 C36.62866,39.0771739 38.827717,38.9648587 39.3935254,41.5526809 C39.5572432,42.3049323 44.1852167,61.4781943 44.1852167,61.4781943 C44.5152715,62.8553624 43.68555,63.9791681 42.3266928,64.0261841 C41.3653419,62.5197228 39.080497,61.4599104 36.4118977,61.4599104 C36.3306937,61.4599104 36.2481799,61.4605634 36.1669759,61.4625227 L36.1669759,63.0362425 C36.1669759,63.4855033 35.9757537,63.8870958 35.6705837,64.1685371 C35.9443199,64.2207767 36.1479849,64.4591202 36.1479849,64.7490504 L36.1479849,65.3889861 C36.1479849,65.7141782 35.8834167,65.9786413 35.5586007,65.9786413 L2.33437503,65.9786413 C2.00824927,65.9786413 1.74302653,65.7141782 1.74302653,65.3889861 L1.74302653,64.7477444 C1.74302653,64.5603344 1.83012437,64.3925147 1.96830214,64.2854233 C1.8654874,64.2103289 1.7724957,64.1228274 1.69063684,64.0261841 L-4.72120521,64.0261841 C-6.13245224,64.0261841 -7.00605017,62.8847474 -6.67075621,61.4755824 C-6.67075621,61.4755824 -2.05588022,42.3206039 -1.88823324,41.550069 C-1.32504415,38.9635527 0.875977313,39.075868 0.875977313,39.075868 L8.88504974,36.9941176 L11.5713306,35.9225514 L12.2144139,33.3379941 C12.3748573,32.7679288 12.6243632,32.4388189 12.9079223,32.0966491 C12.8673203,31.7479493 12.7330718,31.3835777 12.7081867,31.0414079 C11.5700209,29.9202141 10.6427235,28.1910813 10.274686,25.5209815 C9.79073633,25.6274198 9.34935327,25.5196755 8.924342,25.1801177 C8.44759591,24.7968092 7.99573493,24.1209586 7.48493553,23.1597487 L7.44105917,23.0774713 C6.70825851,21.6852843 6.53406282,19.7426218 7.72789267,19.2554869 C8.19416084,19.0661182 8.68727871,19.1555786 9.11359974,19.3762912 C8.55630451,14.7739769 8.54582655,11.5311998 9.13782997,9.26791641 C8.79664215,9.48471103 8.51111839,9.72762546 8.31531196,9.96009195 C8.2825684,10.0155966 8.23476281,10.0521644 8.18237316,10.0691423 C8.10968247,10.0946091 8.02651386,10.0848142 7.95644264,10.0495524 C7.88833608,10.0136376 7.83332689,9.951603 7.81760999,9.87063152 C7.80385771,9.81643287 7.80713206,9.75701027 7.83725612,9.69824065 C8.18040853,8.67499626 9.05400648,7.62955 10.2550399,6.83877209 C10.3395183,6.72906883 10.4246515,6.62458948 10.5137139,6.52468114 C10.1456764,6.59063371 9.81234709,6.69707201 9.55236329,6.82963015 C9.49997363,6.8681569 9.44365472,6.88252283 9.38733581,6.87795186 C9.31137077,6.87338089 9.23737036,6.83158915 9.18760015,6.77151352 C9.13782997,6.71209092 9.11228998,6.63373142 9.12866176,6.55275994 C9.13782997,6.49725533 9.16598939,6.44436265 9.2157596,6.40191792 C9.78746198,5.76263505 10.6577856,5.27158222 11.6931366,4.96663319 C11.685933,4.90590458 11.7009951,4.84321699 11.7389776,4.78967133 C11.7697565,4.74265564 11.8155975,4.70478188 11.8797749,4.686498 C12.1089797,4.58854863 12.4351055,4.51018914 12.8201696,4.45664348 C12.8391609,4.42987065 12.8647009,4.40505681 12.8980993,4.38350795 C13.3139424,4.11577968 13.7658034,3.89049614 14.2484433,3.71549326 C14.9236153,3.47061985 15.6295663,3.32630778 16.3473049,3.33544972 C16.6013948,3.3387147 16.8548299,3.36026356 17.103026,3.39748432 C17.8011185,3.15391689 18.5627335,3.02201174 19.36757,3.02135875 C21.0270131,3.02658271 22.6779429,3.61427892 23.7100197,4.76224551 C23.9837557,4.83015707 24.2483236,4.91178154 24.5017587,5.00320095 C24.4853869,4.97512213 24.4735992,4.94443133 24.4670505,4.91308753 C24.4519885,4.83342205 24.4775285,4.75440956 24.5272987,4.69433395 C24.5757591,4.63425834 24.6504144,4.59246661 24.7283441,4.58789563 C24.7853179,4.58463066 24.8462208,4.60095555 24.90123,4.64405327 C26.3340878,5.53082155 27.2633498,6.7303748 27.8383265,8.14998763 C28.2613733,9.19412791 28.4886135,10.3479715 28.5907731,11.5775625 C28.7492521,13.4601494 28.6110744,15.5445119 28.3949668,17.7150699 C28.3366833,18.2929712 28.2738158,18.8747904 28.2096385,19.4592216 C28.4146131,19.3331935 28.6307204,19.241774 28.8501022,19.1927993 C29.1192542,19.1333767 29.3916804,19.1386007 29.6562486,19.2241431 C30.6372453,19.5421521 30.7583963,20.8161469 30.4748372,21.9242807 C30.2973672,22.6190682 29.9607633,23.2485562 29.5946904,23.8558423 C29.1395551,24.6172353 28.7073403,25.140285 28.2240456,25.3910353 C27.8880967,25.5634262 27.5495285,25.598688 27.1952432,25.5203285 C26.831135,28.1695324 25.9162801,29.8927883 24.7892471,31.0139821 C24.7702558,31.3639878 24.6307683,31.7388074 24.5868919,32.0959961 C24.8704511,32.4381659 25.1193021,32.7672757 25.2817101,33.3373411 L25.9293775,35.9205924 L25.9293775,35.9205924 L25.9293775,35.9205924 Z M24.1887304,42.6986886 L24.5423607,38.9302501 C24.4198998,38.8394837 24.2974389,38.7493703 24.1743232,38.6605628 L23.7100197,38.3353707 L23.6307803,38.2811722 C22.8279084,37.7444096 22.0839749,37.351959 21.7120082,37.4544795 C20.9562871,37.7169839 20.3655934,38.0487055 19.9602282,38.4248312 C19.3295875,39.0079564 19.0460283,39.7484537 19.0198335,40.6939915 L19.0198335,40.7116225 L19.0198335,42.1658442 C19.0198335,42.5282569 18.4776003,42.5282569 18.4776003,42.1658442 L18.4776003,40.7351303 C18.4540249,39.7582485 18.169156,39.0118743 17.5358958,38.4254841 C17.1305306,38.0506648 16.5411467,37.7176369 15.783461,37.4564384 C15.4141137,37.3539183 14.6695254,37.7431037 13.8699278,38.2818252 C13.8594499,38.2785603 13.4069341,38.5946102 13.3532346,38.6416259 C13.2222604,38.7369632 13.092596,38.8316475 12.9616218,38.9282911 L13.3132875,42.6993415 L24.1887304,42.6993415 L24.1887304,42.6986886 L24.1887304,42.6986886 L24.1887304,42.6986886 Z M2.33502991,64.6994225 C2.30948993,64.6994225 2.28656945,64.7209713 2.28656945,64.7477444 L2.28656945,65.3876802 C2.28656945,65.4144529 2.30948993,65.4346958 2.33502991,65.4346958 L35.5605653,65.4346958 C35.5861054,65.4346958 35.6090259,65.4144529 35.6090259,65.3876802 L35.6090259,64.7477444 C35.6090259,64.7209713 35.5861054,64.6994225 35.5605653,64.6994225 L33.7262718,64.6994225 L33.0098429,64.6994225 C32.9751348,64.9932709 32.7243191,65.2224723 32.4224236,65.2224723 L28.6136936,65.2224723 C28.3098336,65.2224723 28.0590179,64.9932709 28.0249648,64.6994225 L18.7474071,64.6994225 L9.46788495,64.6994225 C9.43317677,64.9932709 9.18301604,65.2224723 8.88112051,65.2224723 L5.07239072,65.2224723 C4.76787572,65.2224723 4.517715,64.9932709 4.48431656,64.6994225 L2.98138761,64.6994225 L2.33502991,64.6994225 L2.33502991,64.6994225 L2.33502991,64.6994225 L2.33502991,64.6994225 Z M32.4689193,64.0392439 L34.6162415,64.0392439 C35.1728819,64.0392439 35.6221234,63.5899827 35.6221234,63.0349362 L35.6221234,44.2462886 C35.6221234,43.6912421 35.1715719,43.241328 34.6162415,43.241328 L2.88053746,43.241328 C2.32324223,43.241328 1.87334585,43.6912421 1.87334585,44.2462886 L1.87334585,63.0349362 C1.87334585,63.5899827 2.32389711,64.0392439 2.88053746,64.0392439 L2.97811323,64.0392439 L5.02196567,64.0392439 L5.02196567,64.6315109 C5.02196567,64.656978 5.04226667,64.6798329 5.07042613,64.6798329 L8.87850104,64.6798329 C8.90469587,64.6798329 8.92499687,64.656978 8.92499687,64.6315109 L8.92499687,64.0392439 L18.7441328,64.0392439 L28.5619588,64.0392439 L28.5619588,64.6315109 C28.5619588,64.656978 28.5835697,64.6798329 28.6104194,64.6798329 L32.4191491,64.6798329 C32.4446891,64.6798329 32.4663,64.656978 32.4663,64.6315109 L32.4663,64.0392439 L32.4689193,64.0392439 L32.4689193,64.0392439 L32.4689193,64.0392439 Z M27.4087312,17.1097428 C27.469634,17.2645028 27.5226788,17.4114268 27.5711391,17.5524739 C27.378607,17.4728085 27.1592252,17.4088149 26.921507,17.3572282 L26.9018611,17.3076005 C26.6294345,16.610201 26.4251149,15.8997416 26.754515,13.9198584 C27.4427843,9.7837831 22.5142252,9.79749601 18.8639742,11.0780207 L18.8410537,11.0865097 C18.829266,11.0904277 18.819443,11.0930396 18.8083102,11.0963046 C18.7284159,11.1158945 18.6583447,11.1002226 18.6033355,11.0643078 C18.3800245,10.9918253 18.1292089,10.9337087 17.8888713,10.9004059 C17.0264061,10.7802547 16.1960297,10.9428506 15.503831,11.3104873 C14.544445,11.8217829 13.8548658,12.7209581 13.6976968,13.8121141 C13.6295902,14.3083909 13.6721568,14.7889958 13.8103346,15.2369509 C13.8456977,15.3499192 13.8869545,15.4609284 13.9327955,15.5693257 C14.0807963,15.9134545 13.6446522,16.1361261 13.4501555,15.8155052 C13.4016951,15.7338807 13.3198362,15.6150355 13.2694111,15.4948842 L13.2556589,15.4713764 C12.9996043,14.9927305 12.7815322,14.44552 12.7121159,13.8663127 C12.6086463,12.9828094 12.9105419,11.9909088 13.3748454,11.2543296 C13.5968467,10.9056299 13.8620694,10.5961099 14.168549,10.3362175 C11.9177574,10.416536 10.2943322,11.3764398 10.716724,13.9192054 C11.0467789,15.8990886 10.8437689,16.609548 10.5687231,17.3069475 L10.5503867,17.3578812 C10.3113588,17.4101209 10.0926319,17.4747675 9.90075468,17.5544329 C9.94856027,17.4120799 10.0022597,17.2645028 10.0644724,17.1090898 C10.2962968,16.5155166 10.4966873,15.9062716 10.1810395,14.0073598 C9.6132663,10.5974159 12.28514,9.67473279 14.9773147,9.799455 L15.0028547,9.80141399 C15.4926982,9.57613045 16.0427899,9.4579382 16.6302092,9.47556909 C16.9930077,9.48667002 16.9746713,10.0280035 16.6144923,10.0175556 C15.4376891,9.98229381 14.4422851,10.581744 13.8352197,11.5423008 C13.5176073,12.0470665 13.2766147,12.7085512 13.2419066,13.3406511 C13.5202267,12.2429652 14.2687443,11.354238 15.2484313,10.8318413 C16.0414801,10.410006 16.9858041,10.2258612 17.9635265,10.3616844 C18.2313688,10.3995581 18.5077243,10.4622457 18.7546107,10.5412582 C22.088559,9.39655661 28.1356378,8.93880655 27.2921641,14.0080128 C26.9738968,15.9069246 27.1755969,16.5161696 27.4087312,17.1097428 L27.4087312,17.1097428 L27.4087312,17.1097428 Z M29.3864416,20.7168915 C29.7381073,20.80374 29.6064783,21.3300546 29.2567772,21.2432061 C29.013165,21.1831305 28.5613042,21.4671837 28.2109481,22.1097315 C28.2993556,22.2181288 28.3248957,22.4042326 28.2646475,22.6125383 C28.1710009,22.9377302 27.906433,23.2067644 27.6726441,23.1878276 C27.1638094,23.1486478 27.4886254,22.3918257 27.5200592,22.3193432 C27.8979197,21.3653163 28.6333399,20.5314407 29.3864416,20.7168915 L29.3864416,20.7168915 L29.3864416,20.7168915 Z M8.09462044,20.7168915 C8.84706724,20.5314407 9.58379709,21.3653163 9.96100282,22.3193432 C9.9930915,22.3918257 10.3192173,23.1486478 9.80841786,23.1878276 C9.5752838,23.2067644 9.31006102,22.9377302 9.21706936,22.6125383 C9.15551147,22.4042326 9.18170633,22.2181288 9.27076876,22.1097315 C8.91910305,21.4671837 8.46986151,21.1831305 8.22690436,21.2432061 C7.87327402,21.3300546 7.7429547,20.80374 8.09462044,20.7168915 L8.09462044,20.7168915 L8.09462044,20.7168915 Z M21.0748187,27.932495 C20.4500718,28.0245673 19.6694655,28.0663591 18.6937077,28.0663591 C17.7199145,28.0663591 16.9412729,28.0245673 16.3198003,27.9338009 C16.3892166,27.9866936 16.4638719,28.0356683 16.5424565,28.082031 C16.5974656,28.1146808 16.656404,28.1466776 16.7166521,28.1773684 L16.8050597,28.2191601 C17.2326905,28.4157118 17.8253488,28.5665538 18.6969821,28.5665538 C19.57058,28.5665538 20.1619285,28.4157118 20.5895593,28.2191601 L20.6792766,28.1773684 C20.7395247,28.1466776 20.7984631,28.1146808 20.8534723,28.082031 C20.9281276,28.0356683 21.0054024,27.9860406 21.0748187,27.932495 L21.0748187,27.932495 L21.0748187,27.932495 Z M22.7656956,27.3428397 C22.647164,27.4342592 22.5102959,27.5158836 22.3537818,27.5883662 C22.3144895,27.613833 22.2673388,27.6386468 22.2084004,27.6621547 C22.0420632,27.7300663 21.9254961,27.9076811 21.7624333,28.0526462 C21.5843084,28.2119772 21.4035639,28.3478003 21.2182355,28.4646865 C20.5672937,28.8937047 19.7401916,29.325335 18.6943626,29.327294 C17.6491885,29.325335 16.8247059,28.8937047 16.1717995,28.4646865 C15.986471,28.3478003 15.8063814,28.2119772 15.6269468,28.0526462 C15.4645388,27.9083341 15.3479717,27.7300663 15.1816345,27.6621547 C15.1272802,27.6392998 15.0820941,27.616445 15.0454213,27.5935901 C14.8836682,27.5191486 14.7435258,27.4355652 14.6217198,27.3428397 C14.3440545,27.1306161 14.6623218,26.7140048 14.9412968,26.9268814 C15.4462024,27.3134549 16.4710755,27.5433094 18.6930529,27.5433094 C20.9150302,27.5433094 21.9405582,27.3128019 22.4467735,26.9268814 C22.7270583,26.7140048 23.0453256,27.1306161 22.7656956,27.3428397 L22.7656956,27.3428397 L22.7656956,27.3428397 Z M14.6931007,26.4939452 C14.3761431,26.4051378 14.0277518,26.8119542 13.996318,27.1044963 C13.9668488,27.3872435 13.5405277,27.3402278 13.5713067,27.0581336 C13.6322097,26.5083111 14.2222485,25.9193089 14.8103226,26.0838639 C15.0847136,26.1596114 14.9694563,26.5716517 14.6931007,26.4939452 L14.6931007,26.4939452 L14.6931007,26.4939452 Z M20.987066,25.3178998 C20.7192237,25.3250828 20.494603,25.4014833 20.2745663,25.5451424 L20.1501408,25.6313378 C20.1907428,25.7410411 20.1612737,25.8762112 20.0178569,25.9415108 C19.6177307,26.1263086 19.1901,26.1798543 18.742823,26.1837722 C18.2346432,26.1798543 17.8063575,26.1263086 17.4075411,25.9415108 C17.2844253,25.8853532 17.2464428,25.7782619 17.2628146,25.6803125 C17.0277159,25.5255525 16.7991659,25.3760165 16.4573232,25.3133289 C16.0833919,25.2454173 16.1862066,24.6851469 16.5607928,24.7530585 C17.4599307,24.9182664 17.7041976,25.5745272 18.7297256,25.5745272 C19.6825629,25.5745272 19.935998,24.7746073 20.9739686,24.7484875 C21.352484,24.7393456 21.3682009,25.3087579 20.987066,25.3178998 L20.987066,25.3178998 L20.987066,25.3178998 Z M22.6988988,26.4939452 C22.4251627,26.5716517 22.3092506,26.1596114 22.5836415,26.0838639 C23.1717157,25.9193089 23.7630642,26.5083111 23.8233123,27.0581336 C23.855401,27.3402278 23.4277703,27.3872435 23.3996108,27.1044963 C23.3642478,26.8113012 23.0171661,26.4051378 22.6988988,26.4939452 L22.6988988,26.4939452 L22.6988988,26.4939452 Z M26.5750802,20.6855477 C26.5914522,18.2805643 25.1481164,18.1290692 23.5194522,18.2472615 C19.7349526,18.5195607 20.1108486,19.2946667 20.2385484,20.7541123 C20.3629739,22.1815611 21.5685915,23.4914706 23.60655,23.4914706 C25.2411081,23.4908176 26.5632926,22.5674816 26.5750802,20.6855477 L26.5750802,20.6855477 L26.5750802,20.6855477 Z M10.8981232,20.6855477 C10.9118755,22.5674816 12.2327503,23.4908176 13.8666535,23.4908176 C15.9026475,23.4908176 17.1076101,22.1809081 17.2340002,20.7534593 C17.362355,19.2940137 17.7389058,18.5195607 13.9530965,18.2466085 C12.3231225,18.1290692 10.8817514,18.2805643 10.8981232,20.6855477 L10.8981232,20.6855477 L10.8981232,20.6855477 Z M17.4108154,18.4170404 C17.89542,18.5868193 18.6773359,18.5842073 18.7356195,18.5842073 C18.7958676,18.5842073 19.5771287,18.5868193 20.0597686,18.4170404 C20.5646742,18.2400785 21.987054,17.6021016 24.1893852,17.5204772 C26.0773783,17.4506066 27.3157396,17.7503317 27.6765733,17.9579843 C27.7505736,18.006959 27.8003438,18.0918485 27.8003438,18.1878389 L27.8003438,19.2254492 C27.8003438,19.3697612 27.7322373,19.4853415 27.546254,19.6492434 C27.2096504,19.8967288 27.2050662,20.2388986 27.1369596,20.7887211 C27.0328351,21.6539405 26.9477018,23.5463223 24.093774,23.8238455 C21.4061834,24.0863498 20.2634335,22.6353931 19.8508648,21.5553381 C19.4402607,20.490302 19.4500837,19.9672524 18.7356195,19.9652934 C18.0211552,19.9672524 18.032288,20.490302 17.6216839,21.5553381 C17.2058408,22.6353931 16.0637457,24.0863498 13.3781197,23.8238455 C10.523537,23.5463223 10.4390587,21.6539405 10.3323147,20.7887211 C10.2648629,20.2388986 10.2615886,19.8967288 9.92498491,19.6492434 C9.7396564,19.4853415 9.67154981,19.3697612 9.67154981,19.2254492 L9.67154981,18.1878389 C9.67154981,18.0918485 9.72066515,18.006959 9.79532043,17.9579843 C10.1548446,17.7496787 11.3951703,17.4499536 13.2818537,17.5204772 C15.4828752,17.6021016 16.9072196,18.2400785 17.4108154,18.4170404 L17.4108154,18.4170404 L17.4108154,18.4170404 Z M21.0466593,19.8542841 C20.8423395,19.9979431 20.6347454,19.9750883 20.4828153,19.867997 C20.4860897,19.6309595 20.5266917,19.408941 20.6524269,19.2665879 C20.9156851,18.9694748 21.6236006,18.7037055 23.5430275,18.5652704 C24.7348928,18.479728 25.662845,18.5358856 26.0551127,19.4317958 C25.9915903,19.4298368 25.9247934,19.4154709 25.8534125,19.3847801 C25.2535506,19.1261938 24.5757591,18.9792698 23.8534364,18.9792698 C22.7728992,18.9792698 21.8167876,19.3083796 21.0466593,19.8542841 L21.0466593,19.8542841 L21.0466593,19.8542841 Z M25.530561,20.952623 C25.6870752,21.2987108 25.1671077,21.5337892 25.0105935,21.1870485 C24.8259198,20.7795791 24.3321471,20.4263084 23.6543556,20.330318 C23.8868348,20.4707121 24.043349,20.7253805 24.043349,21.0172696 C24.043349,21.4586947 23.6851345,21.8171894 23.241132,21.8171894 C22.7971295,21.8171894 22.438915,21.4593477 22.438915,21.0172696 C22.438915,20.7384404 22.5816769,20.49422 22.7971295,20.3499079 C22.169763,20.4687531 21.7034949,20.8063519 21.5306089,21.1870485 C21.3740948,21.5331363 20.8534723,21.2987108 21.0099865,20.952623 C21.3478999,20.2095138 22.2738875,19.7360919 23.2863181,19.7360919 C24.3052974,19.7360919 25.1952671,20.2127788 25.530561,20.952623 L25.530561,20.952623 L25.530561,20.952623 Z M16.4337479,19.8542841 C15.6636196,19.3090326 14.706853,18.9799227 13.6276256,18.9799227 C12.9059577,18.9799227 12.2268565,19.1261938 11.6283044,19.3854331 C11.5556137,19.4167769 11.4835779,19.4317958 11.4200554,19.4324488 C11.8103585,18.5365386 12.7389656,18.480381 13.930176,18.5659234 C15.8509127,18.7043585 16.5594831,18.9707808 16.8220864,19.2672409 C16.9340693,19.3945751 16.9831846,19.5526 16.9890785,19.7922495 L16.9903882,19.87518 C16.8364935,19.9757413 16.6334835,19.9953312 16.4337479,19.8542841 L16.4337479,19.8542841 L16.4337479,19.8542841 Z M11.9498461,20.952623 C12.2864498,20.2127788 13.1777292,19.7360919 14.1947439,19.7360919 C15.2071745,19.7360919 16.1325072,20.2095138 16.4717304,20.952623 C16.6275897,21.2987108 16.1069672,21.5337892 15.9504531,21.1870485 C15.7769122,20.8063519 15.3112989,20.4687531 14.6845874,20.3499079 C14.8993851,20.49422 15.0428019,20.7384404 15.0428019,21.0172696 C15.0428019,21.4586947 14.6832777,21.8171894 14.2405848,21.8171894 C13.7972372,21.8171894 13.4370581,21.4593477 13.4370581,21.0172696 C13.4370581,20.7253805 13.5942272,20.4707121 13.8273612,20.330318 C13.1495697,20.4263084 12.6544873,20.7795791 12.4704685,21.1870485 C12.3132995,21.5337892 11.7933319,21.2987108 11.9498461,20.952623 L11.9498461,20.952623 L11.9498461,20.952623 Z M27.7996892,20.5634375 C27.7230693,20.640491 27.6268031,20.6561629 27.5436344,20.6320021 C27.6346615,20.650286 27.7328923,20.6280841 27.7996892,20.5634375 L27.7996892,20.5634375 L27.7996892,20.5634375 Z M9.73441745,20.6071882 C9.69250569,20.5856394 9.65648778,20.5529896 9.62963808,20.5079329 L9.65386831,20.5366647 C9.67809854,20.5673555 9.70494824,20.5908633 9.73441745,20.6071882 L9.73441745,20.6071882 L9.73441745,20.6071882 Z M9.94921514,20.6261251 C9.88110855,20.650286 9.80317889,20.648327 9.73441745,20.6071882 C9.79793994,20.641144 9.87848905,20.647021 9.94921514,20.6261251 L9.94921514,20.6261251 L9.94921514,20.6261251 Z M20.7552416,49.0229527 C20.7906047,50.3485341 18.9039213,50.8637478 18.8862398,50.8128143 C18.4003255,49.3566336 20.7552416,49.0229527 20.7552416,49.0229527 L20.7552416,49.0229527 L20.7552416,49.0229527 Z M18.7827702,56.1268939 C18.4651577,56.1268939 18.2903072,56.2692472 18.09843,56.3750322 C17.9222697,56.4631867 17.7244986,56.5154266 17.514285,56.5154266 C16.1377462,56.5154266 14.6636315,53.7558663 15.580451,51.8824215 C16.5752,49.8529103 18.2267847,51.154984 18.7827702,51.154984 C19.2837465,51.154984 20.7899498,50.0057114 21.7958317,51.5493936 C21.7290349,51.5324156 21.6576539,51.5278447 21.5862729,51.5369865 C21.2856872,51.5787783 21.0787479,51.8549954 21.1193499,52.1540677 C21.1370314,52.2800957 21.1985893,52.392411 21.2843774,52.4740356 C21.1606068,52.5922277 21.0911905,52.7646187 21.1180402,52.9487635 C21.1501289,53.1877601 21.3341476,53.3686399 21.5594232,53.4104317 C21.4991751,53.5122988 21.4710157,53.6363682 21.4913167,53.7630492 C21.5319187,54.0614681 21.809584,54.269774 22.1101698,54.2279823 C21.784044,55.4667152 20.8980035,56.5147736 20.0525651,56.5147736 C19.8416966,56.5147736 19.6432707,56.4625337 19.4658006,56.3737263 C19.275888,56.2692472 19.093179,56.1268939 18.7827702,56.1268939 L18.7827702,56.1268939 L18.7827702,56.1268939 Z" fill="#6D7B8A" mask="url(#mask-7)"></path>
            </g>
        </g>
    </g>
</svg>