<?xml version="1.0" encoding="utf-8"?>
<!-- Generator: Adobe Illustrator 19.2.0, SVG Export Plug-In . SVG Version: 6.00 Build 0)  -->
<svg version="1.1" id="Layer_1" xmlns="http://www.w3.org/2000/svg" xmlns:xlink="http://www.w3.org/1999/xlink" x="0px" y="0px"
	 viewBox="0 0 19 22.4" style="enable-background:new 0 0 19 22.4;" xml:space="preserve">
<style type="text/css">
	.st0{enable-background:new    ;}
	.st1{fill:#27C9CF;}
	.st2{fill:none;stroke:#27C9CF;stroke-linecap:round;stroke-linejoin:round;}
</style>
<g>
	<g class="st0">
		<path class="st1" d="M3.7,11.7l0.6-0.9c0.3,0.3,0.8,0.6,1.4,0.6c0.4,0,0.6-0.2,0.6-0.4c0-0.6-2.5-0.1-2.5-1.8
			c0-0.8,0.6-1.4,1.8-1.4C6.4,7.8,7,8,7.5,8.4L6.9,9.3C6.5,8.9,6,8.8,5.5,8.8c-0.3,0-0.5,0.1-0.5,0.3c0,0.6,2.5,0.2,2.5,1.8
			c0,0.9-0.7,1.5-1.9,1.5C4.8,12.4,4.2,12.1,3.7,11.7z"/>
		<path class="st1" d="M7.8,11.7l0.6-0.9c0.3,0.3,0.8,0.6,1.4,0.6c0.4,0,0.6-0.2,0.6-0.4c0-0.6-2.5-0.1-2.5-1.8
			c0-0.8,0.6-1.4,1.8-1.4c0.7,0,1.3,0.2,1.8,0.6l-0.6,0.8c-0.4-0.3-0.9-0.5-1.3-0.5c-0.3,0-0.5,0.1-0.5,0.3c0,0.6,2.5,0.2,2.5,1.8
			c0,0.9-0.7,1.5-1.9,1.5C8.9,12.4,8.3,12.1,7.8,11.7z"/>
		<path class="st1" d="M12.2,12.3V7.9h1.2v3.5h1.8v1H12.2z"/>
	</g>
	<path class="st2" d="M10,1.2c-0.3,0-0.5,0.1-0.8,0.2c-0.1,0-1.7,0.9-3.3,1.3C4.9,2.9,3.8,3,3.2,3C2.9,3,2.7,3,2.6,3
		c0.4,0-0.3-0.2-1,0.4C1.3,3.6,1.2,4,1.2,4.4v4.2c0,10.8,8.2,13.5,8.6,13.6c0.1,0,0.2,0,0.3,0c0.1,0,0.2,0,0.2,0
		c0.3-0.1,8.6-2.3,8.6-13.6V4.4c0-0.4-0.2-0.8-0.4-1.1c-0.7-0.6-1.5-0.4-1-0.4c0,0-0.2,0-0.6,0c-0.6,0-1.7,0-2.7-0.1
		c-1.3-0.3-2.9-1.1-3.4-1.4C10.5,1.2,10.2,1.2,10,1.2L10,1.2z"/>
</g>
</svg>
